<?xml version="1.0" encoding="UTF-8" standalone="no"?>
<!DOCTYPE svg PUBLIC "-//W3C//DTD SVG 1.1//EN" "http://www.w3.org/Graphics/SVG/1.1/DTD/svg11.dtd">
<svg width="100%" height="100%" viewBox="0 0 51 77" version="1.1" xmlns="http://www.w3.org/2000/svg" xmlns:xlink="http://www.w3.org/1999/xlink" xml:space="preserve" xmlns:serif="http://www.serif.com/" style="fill-rule:evenodd;clip-rule:evenodd;stroke-linejoin:round;stroke-miterlimit:2;">
    <g transform="matrix(3.99021,0,0,3.99021,-1244.01,-3396.35)">
        <path d="M312.389,869.746L323.92,869.746L323.92,855.856L312.389,855.856L312.389,869.746ZM324.182,870.271L312.126,870.271C311.982,870.271 311.864,870.153 311.864,870.008L311.864,855.594C311.864,855.449 311.982,855.332 312.126,855.332L324.182,855.332C324.327,855.332 324.444,855.449 324.444,855.594L324.444,870.008C324.444,870.153 324.327,870.271 324.182,870.271Z" style="fill:rgb(77,83,91);fill-rule:nonzero;"/>
        <path d="M312.487,869.647L323.822,869.647L323.822,855.954L312.487,855.954L312.487,869.647ZM323.92,869.844L312.389,869.844L312.291,869.746L312.291,855.855L312.389,855.758L323.92,855.758L324.019,855.855L324.019,869.746L323.92,869.844ZM312.126,855.43C312.036,855.43 311.963,855.504 311.963,855.594L311.963,870.008C311.963,870.099 312.036,870.172 312.126,870.172L324.182,870.172C324.272,870.172 324.346,870.099 324.346,870.008L324.346,855.594C324.346,855.504 324.272,855.43 324.182,855.43L312.126,855.43ZM324.182,870.368L312.126,870.368C311.928,870.368 311.766,870.207 311.766,870.008L311.766,855.594C311.766,855.396 311.928,855.233 312.126,855.233L324.182,855.233C324.381,855.233 324.542,855.396 324.542,855.594L324.542,870.008C324.542,870.207 324.381,870.368 324.182,870.368Z" style="fill:rgb(77,83,91);fill-rule:nonzero;"/>
        <path d="M322.02,858.673C321.875,858.673 321.758,858.556 321.758,858.411L321.758,855.397C321.758,853.41 320.142,851.794 318.154,851.794C316.167,851.794 314.551,853.41 314.551,855.397L314.551,858.411C314.551,858.556 314.434,858.673 314.289,858.673C314.144,858.673 314.026,858.556 314.026,858.411L314.026,855.397C314.026,853.121 315.878,851.27 318.154,851.27C320.43,851.27 322.282,853.121 322.282,855.397L322.282,858.411C322.282,858.556 322.165,858.673 322.02,858.673Z" style="fill:rgb(77,83,91);fill-rule:nonzero;"/>
        <path d="M318.154,851.695C320.195,851.695 321.856,853.356 321.856,855.397L321.856,858.411C321.856,858.502 321.93,858.575 322.02,858.575C322.11,858.575 322.184,858.502 322.184,858.411L322.184,855.397C322.184,853.176 320.376,851.368 318.154,851.368C315.933,851.368 314.125,853.176 314.125,855.397L314.125,858.411C314.125,858.502 314.199,858.575 314.289,858.575C314.379,858.575 314.453,858.502 314.453,858.411L314.453,855.397C314.453,853.356 316.113,851.695 318.154,851.695ZM322.02,858.771C321.821,858.771 321.66,858.609 321.66,858.411L321.66,855.397C321.66,853.465 320.087,851.892 318.154,851.892C316.222,851.892 314.649,853.465 314.649,855.397L314.649,858.411C314.649,858.609 314.487,858.771 314.289,858.771C314.09,858.771 313.929,858.609 313.929,858.411L313.929,855.397C313.929,853.067 315.824,851.171 318.154,851.171C320.485,851.171 322.38,853.067 322.38,855.397L322.38,858.411C322.38,858.609 322.219,858.771 322.02,858.771Z" style="fill:rgb(77,83,91);fill-rule:nonzero;"/>
    </g>
</svg>
