<?xml version="1.0" encoding="UTF-8" standalone="no"?>
<!DOCTYPE svg PUBLIC "-//W3C//DTD SVG 1.1//EN" "http://www.w3.org/Graphics/SVG/1.1/DTD/svg11.dtd">
<svg width="100%" height="100%" viewBox="0 0 88 77" version="1.1" xmlns="http://www.w3.org/2000/svg" xmlns:xlink="http://www.w3.org/1999/xlink" xml:space="preserve" xmlns:serif="http://www.serif.com/" style="fill-rule:evenodd;clip-rule:evenodd;stroke-linejoin:round;stroke-miterlimit:2;">
    <g transform="matrix(4.44522,0,0,4.44522,-3511.02,-18777.3)">
        <g transform="matrix(1,0,0,1,-124.604,3685.03)">
            <path d="M919.656,554.197L921.171,555.74L919.656,555.74L919.656,554.197ZM921.906,555.74L919.656,553.449L919.656,547.188L928.445,555.74L921.906,555.74ZM933.904,551.098C933.801,550.997 933.635,550.998 933.533,551.102L929.086,555.633L919.769,546.567L926.795,539.679C926.898,539.578 926.9,539.412 926.799,539.308C926.697,539.205 926.532,539.203 926.428,539.304L919.21,546.38L919.208,546.383L919.206,546.385L919.179,546.426L919.151,546.469L919.138,546.536L919.131,546.568L919.131,555.74L914.807,555.74C914.663,555.74 914.545,555.858 914.545,556.002C914.545,556.147 914.663,556.265 914.807,556.265L929.09,556.265L929.191,556.244L929.277,556.186L929.278,556.185L933.907,551.468C934.009,551.365 934.007,551.199 933.904,551.098Z" style="fill:rgb(77,83,91);fill-rule:nonzero;"/>
        </g>
        <g transform="matrix(1,0,0,1,-124.604,3685.03)">
            <path d="M919.754,555.642L920.937,555.642L919.754,554.438L919.754,555.642ZM921.171,555.838L919.656,555.838L919.557,555.74L919.557,554.197L919.619,554.106L919.726,554.128L921.241,555.671L921.262,555.778L921.171,555.838ZM921.947,555.642L928.204,555.642L919.754,547.421L919.754,553.409L921.947,555.642ZM928.445,555.838L921.906,555.838L921.836,555.809L919.585,553.518L919.557,553.449L919.557,547.188L919.618,547.098L919.724,547.118L928.514,555.67L928.537,555.777L928.445,555.838ZM914.807,555.838C914.717,555.838 914.644,555.912 914.644,556.002C914.644,556.093 914.717,556.166 914.807,556.166L929.09,556.166L929.154,556.153L929.208,556.117L933.837,551.399L933.884,551.283L933.835,551.168L933.604,551.17L929.156,555.701L929.018,555.703L919.7,546.637L919.67,546.567L919.7,546.497L926.726,539.608L926.775,539.493L926.729,539.377L926.497,539.375L919.285,546.444L919.278,546.453L919.274,546.456L919.261,546.481L919.242,546.508L919.236,546.541L919.229,546.576L919.229,555.74L919.131,555.838L914.807,555.838ZM929.09,556.363L914.807,556.363C914.608,556.363 914.447,556.201 914.447,556.002C914.447,555.804 914.608,555.642 914.807,555.642L919.033,555.642L919.033,546.567L919.04,546.523L919.061,546.432L919.09,546.382L919.135,546.317L919.139,546.312L919.141,546.311L926.359,539.234C926.501,539.095 926.73,539.098 926.869,539.239C927.008,539.381 927.006,539.61 926.864,539.749L919.91,546.566L929.084,555.494L933.463,551.033C933.603,550.891 933.832,550.888 933.973,551.028C934.042,551.095 934.08,551.186 934.081,551.282C934.082,551.378 934.045,551.469 933.978,551.537L929.349,556.254L929.229,556.335L929.09,556.363Z" style="fill:rgb(77,83,91);fill-rule:nonzero;"/>
        </g>
        <g transform="matrix(1,0,0,1,-124.604,3685.03)">
            <path d="M923.978,549.287L924.163,549.363L924.348,549.286L933.906,539.676C934.008,539.574 934.008,539.408 933.905,539.306C933.803,539.204 933.637,539.204 933.535,539.307L923.977,548.916C923.875,549.019 923.875,549.185 923.978,549.287Z" style="fill:rgb(77,83,91);fill-rule:nonzero;"/>
        </g>
        <g transform="matrix(1,0,0,1,-124.604,3685.03)">
            <path d="M924.047,549.217L924.279,549.216L933.836,539.607L933.884,539.491L933.836,539.375L933.72,539.328L933.604,539.376L924.046,548.986L924.047,549.217ZM924.162,549.461C924.067,549.461 923.977,549.424 923.909,549.357L923.908,549.356C923.768,549.216 923.767,548.988 923.907,548.847L933.465,539.237C933.533,539.169 933.623,539.131 933.719,539.131L933.72,539.131C933.816,539.131 933.907,539.168 933.975,539.236C934.042,539.304 934.081,539.395 934.081,539.491C934.081,539.587 934.044,539.677 933.976,539.746L924.418,549.355C924.35,549.424 924.259,549.461 924.162,549.461Z" style="fill:rgb(77,83,91);fill-rule:nonzero;"/>
        </g>
        <g transform="matrix(1,0,0,1,-124.604,3685.03)">
            <path d="M933.535,544.111L928.755,548.916C928.653,549.019 928.654,549.185 928.757,549.287L928.941,549.363L929.127,549.286L933.906,544.481C934.008,544.378 934.008,544.212 933.905,544.11C933.803,544.008 933.637,544.009 933.535,544.111Z" style="fill:rgb(77,83,91);fill-rule:nonzero;"/>
        </g>
        <g transform="matrix(1,0,0,1,-124.604,3685.03)">
            <path d="M933.604,544.181L928.825,548.986L928.778,549.102L928.826,549.217L929.058,549.216L933.836,544.412L933.884,544.296L933.836,544.18L933.604,544.181ZM928.941,549.461C928.846,549.461 928.755,549.424 928.688,549.357C928.619,549.289 928.582,549.198 928.581,549.102C928.581,549.006 928.618,548.916 928.686,548.847L933.465,544.042C933.604,543.901 933.833,543.901 933.975,544.041C934.042,544.108 934.081,544.199 934.081,544.295C934.081,544.392 934.044,544.482 933.976,544.55L929.197,549.355C929.129,549.424 929.038,549.461 928.941,549.461Z" style="fill:rgb(77,83,91);fill-rule:nonzero;"/>
        </g>
    </g>
</svg>
