<?xml version="1.0" encoding="UTF-8" standalone="no"?>
<!DOCTYPE svg PUBLIC "-//W3C//DTD SVG 1.1//EN" "http://www.w3.org/Graphics/SVG/1.1/DTD/svg11.dtd">
<svg width="100%" height="100%" viewBox="0 0 77 77" version="1.1" xmlns="http://www.w3.org/2000/svg" xmlns:xlink="http://www.w3.org/1999/xlink" xml:space="preserve" xmlns:serif="http://www.serif.com/" style="fill-rule:evenodd;clip-rule:evenodd;stroke-linejoin:round;stroke-miterlimit:2;">
    <g transform="matrix(3.93805,0,0,3.93805,-1420,-874.622)">
        <path d="M370.336,222.717C365.303,222.717 361.208,226.812 361.208,231.846C361.208,236.879 365.303,240.975 370.336,240.975C375.37,240.975 379.465,236.879 379.465,231.846C379.465,226.812 375.37,222.717 370.336,222.717ZM370.336,241.499C365.014,241.499 360.683,237.168 360.683,231.846C360.683,226.523 365.014,222.193 370.336,222.193C375.659,222.193 379.989,226.523 379.989,231.846C379.989,237.168 375.659,241.499 370.336,241.499Z" style="fill:rgb(77,83,91);fill-rule:nonzero;"/>
        <path d="M370.336,222.815C365.357,222.815 361.306,226.866 361.306,231.846C361.306,236.825 365.357,240.876 370.336,240.876C375.315,240.876 379.367,236.825 379.367,231.846C379.367,226.866 375.315,222.815 370.336,222.815ZM370.336,241.073C365.248,241.073 361.109,236.934 361.109,231.846C361.109,226.758 365.248,222.619 370.336,222.619C375.424,222.619 379.563,226.758 379.563,231.846C379.563,236.934 375.424,241.073 370.336,241.073ZM370.336,222.291C365.068,222.291 360.781,226.578 360.781,231.846C360.781,237.114 365.068,241.4 370.336,241.4C375.604,241.4 379.891,237.114 379.891,231.846C379.891,226.578 375.604,222.291 370.336,222.291ZM370.336,241.597C364.959,241.597 360.585,237.223 360.585,231.846C360.585,226.469 364.959,222.095 370.336,222.095C375.713,222.095 380.087,226.469 380.087,231.846C380.087,237.223 375.713,241.597 370.336,241.597Z" style="fill:rgb(77,83,91);fill-rule:nonzero;"/>
        <path d="M377.283,238.167L370.074,231.966L370.074,222.455L370.598,222.455L370.598,231.726L377.625,237.771L377.283,238.167Z" style="fill:rgb(77,83,91);fill-rule:nonzero;"/>
        <path d="M370.172,231.921L377.272,238.029L377.486,237.781L370.534,231.8L370.5,231.726L370.5,222.553L370.172,222.553L370.172,231.921ZM377.283,238.266L377.219,238.242L370.01,232.041L369.976,231.966L369.976,222.455L370.074,222.356L370.598,222.356L370.696,222.455L370.696,231.681L377.689,237.696L377.723,237.763L377.699,237.834L377.357,238.232L377.283,238.266Z" style="fill:rgb(77,83,91);fill-rule:nonzero;"/>
        <rect x="370.336" y="231.583" width="9.391" height="0.525" style="fill:rgb(77,83,91);fill-rule:nonzero;"/>
        <path d="M370.435,232.01L379.629,232.01L379.629,231.682L370.435,231.682L370.435,232.01ZM379.727,232.206L370.336,232.206L370.238,232.108L370.238,231.583L370.336,231.485L379.727,231.485L379.825,231.583L379.825,232.108L379.727,232.206Z" style="fill:rgb(77,83,91);fill-rule:nonzero;"/>
    </g>
</svg>
