<?xml version="1.0" encoding="UTF-8" standalone="no"?>
<!DOCTYPE svg PUBLIC "-//W3C//DTD SVG 1.1//EN" "http://www.w3.org/Graphics/SVG/1.1/DTD/svg11.dtd">
<svg width="100%" height="100%" viewBox="0 0 77 77" version="1.1" xmlns="http://www.w3.org/2000/svg" xmlns:xlink="http://www.w3.org/1999/xlink" xml:space="preserve" xmlns:serif="http://www.serif.com/" style="fill-rule:evenodd;clip-rule:evenodd;stroke-linejoin:round;stroke-miterlimit:2;">
    <g transform="matrix(3.93486,0,0,3.93486,-3388.66,-16643.2)">
        <g transform="matrix(1,0,0,1,-1.13251,3691.36)">
            <path d="M881.484,557.136L872.348,557.136L872.242,557.287L872.027,557.398L872.026,557.398L871.812,557.286L871.708,557.136L862.68,557.136C862.535,557.136 862.418,557.253 862.418,557.398C862.418,557.543 862.535,557.66 862.68,557.66L881.484,557.66C881.629,557.66 881.746,557.543 881.746,557.398C881.746,557.253 881.629,557.136 881.484,557.136Z" style="fill:rgb(77,83,91);fill-rule:nonzero;"/>
        </g>
        <g transform="matrix(1,0,0,1,-1.13251,3691.36)">
            <path d="M862.68,557.234C862.59,557.234 862.516,557.308 862.516,557.398C862.516,557.489 862.59,557.562 862.68,557.562L881.484,557.562C881.574,557.562 881.648,557.489 881.648,557.398C881.648,557.308 881.574,557.234 881.484,557.234L872.399,557.234L872.322,557.344C872.254,557.439 872.145,557.497 872.027,557.497C871.908,557.496 871.798,557.438 871.731,557.341L871.657,557.234L862.68,557.234ZM881.484,557.759L862.68,557.759C862.481,557.759 862.32,557.597 862.32,557.398C862.32,557.2 862.481,557.038 862.68,557.038L871.708,557.038L871.79,557.08L871.893,557.229L872.161,557.231L872.268,557.08L872.348,557.038L881.484,557.038C881.683,557.038 881.844,557.2 881.844,557.398C881.844,557.597 881.683,557.759 881.484,557.759Z" style="fill:rgb(77,83,91);fill-rule:nonzero;"/>
        </g>
        <g transform="matrix(1,0,0,1,-1.13251,3691.36)">
            <path d="M867.267,549.886L867.528,549.886L867.528,538.66C867.528,538.515 867.411,538.398 867.267,538.398C867.122,538.398 867.004,538.515 867.004,538.66L867.004,550.147C867.004,550.003 867.122,549.886 867.267,549.886Z" style="fill:rgb(77,83,91);fill-rule:nonzero;"/>
        </g>
        <g transform="matrix(1,0,0,1,-1.13251,3691.36)">
            <path d="M867.267,538.496C867.176,538.496 867.103,538.57 867.103,538.66L867.103,549.827L867.267,549.787L867.43,549.787L867.43,538.66C867.43,538.57 867.357,538.496 867.267,538.496ZM867.004,550.246L866.906,550.147L866.906,538.66C866.906,538.461 867.068,538.3 867.267,538.3C867.465,538.3 867.626,538.461 867.626,538.66L867.626,549.886L867.528,549.984L867.267,549.984C867.176,549.984 867.103,550.057 867.103,550.147L867.004,550.246Z" style="fill:rgb(77,83,91);fill-rule:nonzero;"/>
        </g>
        <g transform="matrix(1,0,0,1,-1.13251,3691.36)">
            <path d="M877.09,550.413L877.138,550.261L877.138,550.147C877.138,550.292 877.021,550.41 876.876,550.41L876.451,550.41L872.774,555.623L872.896,555.623C873.04,555.623 873.158,555.74 873.158,555.885C873.158,556.03 873.04,556.147 872.896,556.147L872.404,556.147L872.029,556.679L871.661,556.147L871.175,556.147C871.03,556.147 870.913,556.03 870.913,555.885C870.913,555.74 871.03,555.623 871.175,555.623L871.298,555.623L867.688,550.41L867.267,550.41C867.122,550.41 867.004,550.292 867.004,550.147L867.004,550.261L867.051,550.411L871.708,557.136L872.348,557.136L877.09,550.413Z" style="fill:rgb(77,83,91);fill-rule:nonzero;"/>
        </g>
        <g transform="matrix(1,0,0,1,-1.13251,3691.36)">
            <path d="M867.237,550.507L870.852,555.726C870.901,555.625 870.999,555.549 871.114,555.53L867.636,550.508L867.267,550.508L867.237,550.507ZM872.959,555.53C873.075,555.551 873.171,555.626 873.22,555.729L876.903,550.507L876.876,550.508L876.501,550.508L872.959,555.53ZM871.76,557.038L872.297,557.038L872.856,556.245L872.456,556.245L872.11,556.735L872.029,556.777L871.949,556.735L871.61,556.245L871.211,556.245L871.76,557.038ZM872.348,557.234L871.708,557.234L871.628,557.192L866.97,550.467L866.906,550.262L866.906,550.147L867.004,550.049L867.103,550.147C867.103,550.238 867.176,550.312 867.267,550.312L867.688,550.312L867.769,550.354L871.379,555.567L871.385,555.668L871.298,555.721L871.175,555.721C871.084,555.721 871.011,555.794 871.011,555.885C871.011,555.975 871.084,556.049 871.175,556.049L871.661,556.049L871.742,556.091L872.03,556.507L872.324,556.09L872.404,556.049L872.896,556.049C872.986,556.049 873.06,555.975 873.06,555.885C873.06,555.794 872.986,555.721 872.896,555.721L872.774,555.721L872.687,555.668L872.694,555.566L876.37,550.353L876.451,550.312L876.876,550.312C876.966,550.312 877.04,550.238 877.04,550.147L877.138,550.049L877.236,550.147L877.236,550.262L877.17,550.469L872.429,557.193L872.348,557.234Z" style="fill:rgb(77,83,91);fill-rule:nonzero;"/>
        </g>
        <g transform="matrix(1,0,0,1,-1.13251,3691.36)">
            <path d="M877.138,550.147L877.138,538.66C877.138,538.515 877.021,538.398 876.876,538.398C876.731,538.398 876.614,538.515 876.614,538.66L876.614,549.886L876.876,549.886C877.021,549.886 877.138,550.003 877.138,550.147Z" style="fill:rgb(77,83,91);fill-rule:nonzero;"/>
        </g>
        <g transform="matrix(1,0,0,1,-1.13251,3691.36)">
            <path d="M876.712,549.787L876.876,549.787L877.04,549.827L877.04,538.66C877.04,538.57 876.966,538.496 876.876,538.496C876.786,538.496 876.712,538.57 876.712,538.66L876.712,549.787ZM877.138,550.246L877.04,550.147C877.04,550.057 876.966,549.984 876.876,549.984L876.614,549.984L876.516,549.886L876.516,538.66C876.516,538.461 876.677,538.3 876.876,538.3C877.075,538.3 877.236,538.461 877.236,538.66L877.236,550.147L877.138,550.246Z" style="fill:rgb(77,83,91);fill-rule:nonzero;"/>
        </g>
        <g transform="matrix(1,0,0,1,-1.13251,3691.36)">
            <path d="M872.026,557.398L872.027,557.398L872.242,557.287L872.348,557.136L871.708,557.136L871.812,557.286L872.026,557.398Z" style="fill:rgb(77,83,91);fill-rule:nonzero;"/>
        </g>
        <g transform="matrix(1,0,0,1,-1.13251,3691.36)">
            <path d="M872.026,557.3L872.027,557.3L872.159,557.234L871.896,557.234L872.026,557.3ZM872.027,557.497L872.026,557.497C871.908,557.496 871.798,557.438 871.731,557.341L871.628,557.192L871.622,557.091L871.708,557.038L872.348,557.038L872.436,557.091L872.429,557.193L872.322,557.344C872.254,557.439 872.145,557.497 872.027,557.497Z" style="fill:rgb(77,83,91);fill-rule:nonzero;"/>
        </g>
        <g transform="matrix(1,0,0,1,-1.13251,3691.36)">
            <path d="M867.688,550.41L876.451,550.41L876.614,550.178L876.614,549.886L867.528,549.886L867.528,550.18L867.688,550.41Z" style="fill:rgb(77,83,91);fill-rule:nonzero;"/>
        </g>
        <g transform="matrix(1,0,0,1,-1.13251,3691.36)">
            <path d="M867.739,550.312L876.399,550.312L876.516,550.147L876.516,549.984L867.626,549.984L867.626,550.149L867.739,550.312ZM876.451,550.508L867.688,550.508L867.607,550.466L867.448,550.236L867.43,550.18L867.43,549.886L867.528,549.787L876.614,549.787L876.712,549.886L876.712,550.178L876.694,550.235L876.531,550.466L876.451,550.508Z" style="fill:rgb(77,83,91);fill-rule:nonzero;"/>
        </g>
        <g transform="matrix(1,0,0,1,-1.13251,3691.36)">
            <path d="M867.267,550.41L867.688,550.41L867.528,550.18L867.528,549.886L867.267,549.886C867.122,549.886 867.004,550.003 867.004,550.147C867.004,550.292 867.122,550.41 867.267,550.41Z" style="fill:rgb(77,83,91);fill-rule:nonzero;"/>
        </g>
        <g transform="matrix(1,0,0,1,-1.13251,3691.36)">
            <path d="M867.267,549.984C867.176,549.984 867.103,550.057 867.103,550.147C867.103,550.238 867.176,550.312 867.267,550.312L867.5,550.312L867.448,550.236L867.43,550.18L867.43,549.984L867.267,549.984ZM867.688,550.508L867.267,550.508C867.068,550.508 866.906,550.346 866.906,550.147C866.906,549.949 867.068,549.787 867.267,549.787L867.528,549.787L867.626,549.886L867.626,550.149L867.769,550.354L867.775,550.455L867.688,550.508Z" style="fill:rgb(77,83,91);fill-rule:nonzero;"/>
        </g>
        <g transform="matrix(1,0,0,1,-1.13251,3691.36)">
            <path d="M876.451,550.41L876.876,550.41C877.021,550.41 877.138,550.292 877.138,550.147C877.138,550.003 877.021,549.886 876.876,549.886L876.614,549.886L876.614,550.178L876.451,550.41Z" style="fill:rgb(77,83,91);fill-rule:nonzero;"/>
        </g>
        <g transform="matrix(1,0,0,1,-1.13251,3691.36)">
            <path d="M876.64,550.312L876.876,550.312C876.966,550.312 877.04,550.238 877.04,550.147C877.04,550.057 876.966,549.984 876.876,549.984L876.712,549.984L876.712,550.178L876.694,550.235L876.64,550.312ZM876.876,550.508L876.451,550.508L876.363,550.455L876.37,550.353L876.516,550.147L876.516,549.886L876.614,549.787L876.876,549.787C877.075,549.787 877.236,549.949 877.236,550.147C877.236,550.346 877.075,550.508 876.876,550.508Z" style="fill:rgb(77,83,91);fill-rule:nonzero;"/>
        </g>
        <g transform="matrix(1,0,0,1,-1.13251,3691.36)">
            <path d="M871.661,556.147L872.404,556.147L872.774,555.623L871.298,555.623L871.661,556.147Z" style="fill:rgb(77,83,91);fill-rule:nonzero;"/>
        </g>
        <g transform="matrix(1,0,0,1,-1.13251,3691.36)">
            <path d="M871.713,556.049L872.354,556.049L872.584,555.721L871.486,555.721L871.713,556.049ZM872.404,556.245L871.661,556.245L871.581,556.203L871.217,555.679L871.211,555.577L871.298,555.524L872.774,555.524L872.861,555.578L872.854,555.679L872.485,556.204L872.404,556.245Z" style="fill:rgb(77,83,91);fill-rule:nonzero;"/>
        </g>
        <g transform="matrix(1,0,0,1,-1.13251,3691.36)">
            <path d="M871.175,555.623C871.03,555.623 870.913,555.74 870.913,555.885C870.913,556.03 871.03,556.147 871.175,556.147L871.661,556.147L871.298,555.623L871.175,555.623Z" style="fill:rgb(77,83,91);fill-rule:nonzero;"/>
        </g>
        <g transform="matrix(1,0,0,1,-1.13251,3691.36)">
            <path d="M871.175,555.721C871.084,555.721 871.011,555.794 871.011,555.885C871.011,555.975 871.084,556.049 871.175,556.049L871.474,556.049L871.247,555.721L871.175,555.721ZM871.661,556.245L871.175,556.245C870.977,556.245 870.814,556.083 870.814,555.885C870.814,555.686 870.977,555.524 871.175,555.524L871.298,555.524L871.379,555.567L871.742,556.091L871.749,556.192L871.661,556.245Z" style="fill:rgb(77,83,91);fill-rule:nonzero;"/>
        </g>
        <g transform="matrix(1,0,0,1,-1.13251,3691.36)">
            <path d="M872.896,556.147C873.04,556.147 873.158,556.03 873.158,555.885C873.158,555.74 873.04,555.623 872.896,555.623L872.774,555.623L872.404,556.147L872.896,556.147Z" style="fill:rgb(77,83,91);fill-rule:nonzero;"/>
        </g>
        <g transform="matrix(1,0,0,1,-1.13251,3691.36)">
            <path d="M872.594,556.049L872.896,556.049C872.986,556.049 873.06,555.975 873.06,555.885C873.06,555.794 872.986,555.721 872.896,555.721L872.825,555.721L872.594,556.049ZM872.896,556.245L872.404,556.245L872.317,556.192L872.324,556.09L872.694,555.566L872.774,555.524L872.896,555.524C873.094,555.524 873.256,555.686 873.256,555.885C873.256,556.083 873.094,556.245 872.896,556.245Z" style="fill:rgb(77,83,91);fill-rule:nonzero;"/>
        </g>
        <g transform="matrix(1,0,0,1,-1.13251,3691.36)">
            <path d="M869.668,548.007C869.813,548.007 869.931,547.89 869.931,547.745L869.931,540.669C869.931,540.524 869.813,540.407 869.668,540.407C869.524,540.407 869.407,540.524 869.407,540.669L869.407,547.745C869.407,547.89 869.524,548.007 869.668,548.007Z" style="fill:rgb(77,83,91);fill-rule:nonzero;"/>
        </g>
        <g transform="matrix(1,0,0,1,-1.13251,3691.36)">
            <path d="M869.669,540.505C869.579,540.505 869.505,540.579 869.505,540.669L869.505,547.745C869.505,547.835 869.579,547.909 869.669,547.909C869.759,547.909 869.833,547.835 869.833,547.745L869.833,540.669C869.833,540.579 869.759,540.505 869.669,540.505ZM869.669,548.105C869.47,548.105 869.309,547.944 869.309,547.745L869.309,540.669C869.309,540.471 869.47,540.309 869.669,540.309C869.867,540.309 870.029,540.471 870.029,540.669L870.029,547.745C870.029,547.944 869.867,548.105 869.669,548.105Z" style="fill:rgb(77,83,91);fill-rule:nonzero;"/>
        </g>
        <g transform="matrix(1,0,0,1,-1.13251,3691.36)">
            <path d="M874.561,548.007C874.706,548.007 874.823,547.89 874.823,547.745L874.823,540.669C874.823,540.524 874.706,540.407 874.561,540.407C874.416,540.407 874.299,540.524 874.299,540.669L874.299,547.745C874.299,547.89 874.416,548.007 874.561,548.007Z" style="fill:rgb(77,83,91);fill-rule:nonzero;"/>
        </g>
        <g transform="matrix(1,0,0,1,-1.13251,3691.36)">
            <path d="M874.561,540.505C874.471,540.505 874.397,540.579 874.397,540.669L874.397,547.745C874.397,547.835 874.471,547.909 874.561,547.909C874.651,547.909 874.725,547.835 874.725,547.745L874.725,540.669C874.725,540.579 874.651,540.505 874.561,540.505ZM874.561,548.105C874.362,548.105 874.201,547.944 874.201,547.745L874.201,540.669C874.201,540.471 874.362,540.309 874.561,540.309C874.76,540.309 874.921,540.471 874.921,540.669L874.921,547.745C874.921,547.944 874.76,548.105 874.561,548.105Z" style="fill:rgb(77,83,91);fill-rule:nonzero;"/>
        </g>
        <g transform="matrix(1,0,0,1,-1.13251,3691.36)">
            <path d="M872.071,547.003C872.216,547.003 872.333,546.885 872.333,546.741L872.333,539.402C872.333,539.258 872.216,539.141 872.071,539.141C871.926,539.141 871.809,539.258 871.809,539.402L871.809,546.741C871.809,546.885 871.926,547.003 872.071,547.003Z" style="fill:rgb(77,83,91);fill-rule:nonzero;"/>
        </g>
        <g transform="matrix(1,0,0,1,-1.13251,3691.36)">
            <path d="M872.071,539.239C871.981,539.239 871.908,539.312 871.908,539.402L871.908,546.741C871.908,546.831 871.981,546.904 872.071,546.904C872.162,546.904 872.235,546.831 872.235,546.741L872.235,539.402C872.235,539.312 872.162,539.239 872.071,539.239ZM872.071,547.101C871.873,547.101 871.711,546.939 871.711,546.741L871.711,539.402C871.711,539.204 871.873,539.042 872.071,539.042C872.27,539.042 872.432,539.204 872.432,539.402L872.432,546.741C872.432,546.939 872.27,547.101 872.071,547.101Z" style="fill:rgb(77,83,91);fill-rule:nonzero;"/>
        </g>
    </g>
</svg>
