<?xml version="1.0" encoding="UTF-8" standalone="no"?>
<!DOCTYPE svg PUBLIC "-//W3C//DTD SVG 1.1//EN" "http://www.w3.org/Graphics/SVG/1.1/DTD/svg11.dtd">
<svg width="100%" height="100%" viewBox="0 0 88 77" version="1.1" xmlns="http://www.w3.org/2000/svg" xmlns:xlink="http://www.w3.org/1999/xlink" xml:space="preserve" xmlns:serif="http://www.serif.com/" style="fill-rule:evenodd;clip-rule:evenodd;stroke-linejoin:round;stroke-miterlimit:2;">
    <g transform="matrix(4.51384,0,0,4.51384,-2098.75,-1486.29)">
        <path d="M481.465,332.233L481.465,341.123L467.847,341.123L467.847,332.233L481.465,332.233ZM474.438,331.709L467.585,331.709C467.44,331.709 467.323,331.827 467.323,331.972L467.323,341.385C467.323,341.529 467.44,341.647 467.585,341.647L474.043,341.647L469.671,345.792C469.566,345.891 469.562,346.057 469.662,346.162C469.761,346.267 469.927,346.271 470.032,346.172L474.438,341.995L474.438,345.982C474.438,346.126 474.555,346.244 474.7,346.244C474.845,346.244 474.962,346.126 474.962,345.982L474.962,342.003L479.268,346.17L479.45,346.244L479.639,346.164C479.739,346.06 479.736,345.894 479.632,345.793L475.348,341.647L481.728,341.647C481.872,341.647 481.99,341.529 481.99,341.385L481.99,331.972C481.99,331.827 481.872,331.709 481.728,331.709L474.962,331.709L474.962,329.799L484.178,329.799C484.323,329.799 484.44,329.681 484.44,329.537C484.44,329.392 484.323,329.274 484.178,329.274L465.222,329.274C465.077,329.274 464.959,329.392 464.959,329.537C464.959,329.681 465.077,329.799 465.222,329.799L474.438,329.799L474.438,331.709Z" style="fill:rgb(77,83,91);fill-rule:nonzero;"/>
    </g>
</svg>
