<?xml version="1.0" encoding="UTF-8" standalone="no"?>
<!DOCTYPE svg PUBLIC "-//W3C//DTD SVG 1.1//EN" "http://www.w3.org/Graphics/SVG/1.1/DTD/svg11.dtd">
<svg width="100%" height="100%" viewBox="0 0 78 77" version="1.1" xmlns="http://www.w3.org/2000/svg" xmlns:xlink="http://www.w3.org/1999/xlink" xml:space="preserve" xmlns:serif="http://www.serif.com/" style="fill-rule:evenodd;clip-rule:evenodd;stroke-linejoin:round;stroke-miterlimit:2;">
    <g transform="matrix(3.98898,0,0,3.98898,-125.554,-2779.78)">
        <path d="M32.098,712.768L41.196,715.486L50.282,713.195L50.282,699.915L41.258,702.359L41.121,702.359L32.098,699.915L32.098,712.768ZM41.19,716.021L41.115,716.01L31.761,713.214C31.65,713.181 31.574,713.079 31.574,712.963L31.574,699.573L31.676,699.365L31.904,699.32L41.19,701.835L50.476,699.32L50.704,699.365L50.806,699.573L50.806,713.399C50.806,713.52 50.725,713.624 50.608,713.653L41.254,716.013L41.19,716.021Z" style="fill:rgb(77,83,91);fill-rule:nonzero;"/>
        <path d="M32.196,712.694L41.198,715.385L50.184,713.119L50.184,700.044L41.284,702.454L41.095,702.454L32.196,700.044L32.196,712.694ZM41.196,715.585L41.168,715.581L32.07,712.862L32,712.768L32,699.915L32.038,699.837L32.124,699.82L41.147,702.265L41.232,702.265L50.256,699.82L50.342,699.837L50.38,699.915L50.38,713.195L50.306,713.291L41.22,715.582L41.196,715.585ZM31.835,699.409L31.736,699.443L31.672,699.573L31.672,712.963L31.789,713.12L41.143,715.915L41.23,715.917L50.584,713.559L50.708,713.399L50.708,699.573L50.644,699.443L50.501,699.415L41.215,701.93L41.164,701.93L31.879,699.415L31.835,699.409ZM41.19,716.118L41.086,716.104L31.732,713.309C31.582,713.264 31.476,713.121 31.476,712.963L31.476,699.573C31.476,699.462 31.528,699.354 31.617,699.287C31.706,699.219 31.82,699.195 31.929,699.226L41.19,701.733L50.45,699.226C50.559,699.196 50.673,699.218 50.763,699.287C50.852,699.354 50.904,699.462 50.904,699.573L50.904,713.399C50.904,713.564 50.793,713.709 50.632,713.749L41.278,716.107L41.19,716.118Z" style="fill:rgb(77,83,91);fill-rule:nonzero;"/>
        <path d="M50.544,699.835L50.48,699.827L41.19,697.484L31.9,699.827C31.76,699.862 31.617,699.777 31.582,699.637C31.546,699.497 31.631,699.354 31.772,699.319L41.126,696.96L41.254,696.96L50.608,699.319C50.749,699.354 50.834,699.497 50.798,699.637C50.769,699.756 50.662,699.835 50.544,699.835Z" style="fill:rgb(77,83,91);fill-rule:nonzero;"/>
        <path d="M41.19,697.387L41.214,697.39L50.504,699.732L50.703,699.613L50.685,699.489L50.584,699.414L41.23,697.056L41.15,697.056L31.796,699.414L31.695,699.489L31.677,699.613L31.876,699.732L41.166,697.39L41.19,697.387ZM50.544,699.934L50.457,699.923L41.19,697.586L31.924,699.923C31.731,699.971 31.535,699.854 31.486,699.661C31.463,699.567 31.477,699.471 31.526,699.389C31.576,699.306 31.654,699.247 31.748,699.224L41.102,696.865L41.278,696.865L50.632,699.224C50.726,699.247 50.804,699.306 50.854,699.389C50.903,699.471 50.917,699.567 50.894,699.661C50.854,699.821 50.71,699.934 50.544,699.934Z" style="fill:rgb(77,83,91);fill-rule:nonzero;"/>
        <path d="M41.19,716.021C41.045,716.021 40.928,715.903 40.928,715.758L40.928,702.106C40.928,701.962 41.045,701.845 41.19,701.845C41.335,701.845 41.452,701.962 41.452,702.106L41.452,715.758C41.452,715.903 41.335,716.021 41.19,716.021Z" style="fill:rgb(77,83,91);fill-rule:nonzero;"/>
        <path d="M41.19,701.942C41.1,701.942 41.026,702.017 41.026,702.106L41.026,715.758C41.026,715.849 41.1,715.922 41.19,715.922C41.28,715.922 41.354,715.849 41.354,715.758L41.354,702.106C41.354,702.017 41.28,701.942 41.19,701.942ZM41.19,716.118C40.991,716.118 40.83,715.957 40.83,715.758L40.83,702.106C40.83,701.908 40.991,701.746 41.19,701.746C41.388,701.746 41.55,701.908 41.55,702.106L41.55,715.758C41.55,715.957 41.388,716.118 41.19,716.118Z" style="fill:rgb(77,83,91);fill-rule:nonzero;"/>
        <path d="M45.424,701.222L45.343,701.209L37.396,698.643C37.258,698.599 37.183,698.451 37.227,698.313C37.272,698.176 37.418,698.1 37.557,698.145L45.504,700.71C45.642,700.755 45.717,700.902 45.673,701.04C45.637,701.151 45.535,701.222 45.424,701.222Z" style="fill:rgb(77,83,91);fill-rule:nonzero;"/>
        <path d="M37.475,698.229L37.321,698.344L37.331,698.469L37.426,698.549L45.374,701.115L45.58,701.01L45.569,700.885L45.474,700.804L37.527,698.238L37.475,698.229ZM45.424,701.32L45.313,701.303L37.366,698.736C37.274,698.707 37.2,698.644 37.156,698.559C37.112,698.473 37.104,698.375 37.134,698.283C37.195,698.094 37.399,697.989 37.587,698.051L45.535,700.617C45.626,700.646 45.7,700.71 45.745,700.795C45.788,700.881 45.796,700.979 45.767,701.07C45.718,701.22 45.581,701.32 45.424,701.32Z" style="fill:rgb(77,83,91);fill-rule:nonzero;"/>
    </g>
</svg>
