<?xml version="1.0" encoding="UTF-8" standalone="no"?>
<!DOCTYPE svg PUBLIC "-//W3C//DTD SVG 1.1//EN" "http://www.w3.org/Graphics/SVG/1.1/DTD/svg11.dtd">
<svg width="100%" height="100%" viewBox="0 0 80 77" version="1.1" xmlns="http://www.w3.org/2000/svg" xmlns:xlink="http://www.w3.org/1999/xlink" xml:space="preserve" xmlns:serif="http://www.serif.com/" style="fill-rule:evenodd;clip-rule:evenodd;stroke-linejoin:round;stroke-miterlimit:2;">
    <g transform="matrix(4.05363,0,0,4.05363,-338.912,-1330.75)">
        <path d="M87.171,346.131C85.26,346.131 83.706,344.577 83.706,342.667C83.706,340.755 85.26,339.201 87.171,339.201C87.316,339.201 87.433,339.318 87.433,339.463C87.433,339.608 87.316,339.725 87.171,339.725C85.549,339.725 84.23,341.044 84.23,342.667C84.23,344.288 85.549,345.607 87.171,345.607C87.316,345.607 87.433,345.725 87.433,345.869C87.433,346.014 87.316,346.131 87.171,346.131Z" style="fill:rgb(77,83,91);fill-rule:nonzero;"/>
        <path d="M87.171,339.299C85.314,339.299 83.804,340.81 83.804,342.667C83.804,344.523 85.314,346.033 87.171,346.033C87.261,346.033 87.335,345.96 87.335,345.87C87.335,345.779 87.261,345.706 87.171,345.706C85.495,345.706 84.131,344.342 84.131,342.667C84.131,340.991 85.495,339.627 87.171,339.627C87.261,339.627 87.335,339.554 87.335,339.463C87.335,339.373 87.261,339.299 87.171,339.299ZM87.171,346.23C85.206,346.23 83.607,344.631 83.607,342.667C83.607,340.701 85.206,339.103 87.171,339.103C87.37,339.103 87.531,339.265 87.531,339.463C87.531,339.662 87.37,339.824 87.171,339.824C85.604,339.824 84.328,341.099 84.328,342.667C84.328,344.234 85.604,345.509 87.171,345.509C87.37,345.509 87.531,345.671 87.531,345.87C87.531,346.068 87.37,346.23 87.171,346.23Z" style="fill:rgb(77,83,91);fill-rule:nonzero;"/>
        <path d="M88.303,338.632C87.823,338.632 87.433,339.022 87.433,339.501L87.433,345.74C87.433,346.22 87.823,346.61 88.303,346.61C88.782,346.61 89.172,346.22 89.172,345.74L89.172,339.501C89.172,339.022 88.782,338.632 88.303,338.632ZM88.303,347.134C87.534,347.134 86.909,346.509 86.909,345.74L86.909,339.501C86.909,338.733 87.534,338.107 88.303,338.107C89.071,338.107 89.696,338.733 89.696,339.501L89.696,345.74C89.696,346.509 89.071,347.134 88.303,347.134Z" style="fill:rgb(77,83,91);fill-rule:nonzero;"/>
        <path d="M88.303,338.73C87.877,338.73 87.531,339.076 87.531,339.501L87.531,345.74C87.531,346.166 87.877,346.512 88.303,346.512C88.728,346.512 89.074,346.166 89.074,345.74L89.074,339.501C89.074,339.076 88.728,338.73 88.303,338.73ZM88.303,346.708C87.769,346.708 87.335,346.274 87.335,345.74L87.335,339.501C87.335,338.968 87.769,338.534 88.303,338.534C88.836,338.534 89.271,338.968 89.271,339.501L89.271,345.74C89.271,346.274 88.836,346.708 88.303,346.708ZM88.303,338.206C87.588,338.206 87.007,338.787 87.007,339.501L87.007,345.74C87.007,346.455 87.588,347.036 88.303,347.036C89.017,347.036 89.598,346.455 89.598,345.74L89.598,339.501C89.598,338.787 89.017,338.206 88.303,338.206ZM88.303,347.232C87.48,347.232 86.811,346.563 86.811,345.74L86.811,339.501C86.811,338.679 87.48,338.009 88.303,338.009C89.126,338.009 89.795,338.679 89.795,339.501L89.795,345.74C89.795,346.563 89.126,347.232 88.303,347.232Z" style="fill:rgb(77,83,91);fill-rule:nonzero;"/>
        <path d="M99.573,346.131C99.428,346.131 99.311,346.014 99.311,345.869C99.311,345.725 99.428,345.607 99.573,345.607C101.195,345.607 102.515,344.288 102.515,342.667C102.515,341.044 101.195,339.725 99.573,339.725C99.428,339.725 99.311,339.608 99.311,339.463C99.311,339.318 99.428,339.201 99.573,339.201C101.484,339.201 103.039,340.755 103.039,342.667C103.039,344.577 101.484,346.131 99.573,346.131Z" style="fill:rgb(77,83,91);fill-rule:nonzero;"/>
        <path d="M99.573,339.299C99.482,339.299 99.409,339.373 99.409,339.463C99.409,339.554 99.482,339.627 99.573,339.627C101.25,339.627 102.613,340.991 102.613,342.667C102.613,344.342 101.25,345.706 99.573,345.706C99.482,345.706 99.409,345.779 99.409,345.87C99.409,345.96 99.482,346.033 99.573,346.033C101.43,346.033 102.94,344.523 102.94,342.667C102.94,340.81 101.43,339.299 99.573,339.299ZM99.573,346.23C99.375,346.23 99.212,346.068 99.212,345.87C99.212,345.671 99.375,345.509 99.573,345.509C101.141,345.509 102.417,344.234 102.417,342.667C102.417,341.099 101.141,339.824 99.573,339.824C99.375,339.824 99.212,339.662 99.212,339.463C99.212,339.265 99.375,339.103 99.573,339.103C101.539,339.103 103.137,340.701 103.137,342.667C103.137,344.631 101.539,346.23 99.573,346.23Z" style="fill:rgb(77,83,91);fill-rule:nonzero;"/>
        <path d="M98.441,338.632C97.961,338.632 97.571,339.022 97.571,339.501L97.571,345.74C97.571,346.22 97.961,346.61 98.441,346.61C98.921,346.61 99.311,346.22 99.311,345.74L99.311,339.501C99.311,339.022 98.921,338.632 98.441,338.632ZM98.441,347.134C97.672,347.134 97.047,346.509 97.047,345.74L97.047,339.501C97.047,338.733 97.672,338.107 98.441,338.107C99.21,338.107 99.835,338.733 99.835,339.501L99.835,345.74C99.835,346.509 99.21,347.134 98.441,347.134Z" style="fill:rgb(77,83,91);fill-rule:nonzero;"/>
        <path d="M98.441,338.73C98.016,338.73 97.67,339.076 97.67,339.501L97.67,345.74C97.67,346.166 98.016,346.512 98.441,346.512C98.867,346.512 99.212,346.166 99.212,345.74L99.212,339.501C99.212,339.076 98.867,338.73 98.441,338.73ZM98.441,346.708C97.908,346.708 97.473,346.274 97.473,345.74L97.473,339.501C97.473,338.968 97.908,338.534 98.441,338.534C98.975,338.534 99.409,338.968 99.409,339.501L99.409,345.74C99.409,346.274 98.975,346.708 98.441,346.708ZM98.441,338.206C97.727,338.206 97.146,338.787 97.146,339.501L97.146,345.74C97.146,346.455 97.727,347.036 98.441,347.036C99.155,347.036 99.737,346.455 99.737,345.74L99.737,339.501C99.737,338.787 99.155,338.206 98.441,338.206ZM98.441,347.232C97.619,347.232 96.949,346.563 96.949,345.74L96.949,339.501C96.949,338.679 97.619,338.009 98.441,338.009C99.264,338.009 99.933,338.679 99.933,339.501L99.933,345.74C99.933,346.563 99.264,347.232 98.441,347.232Z" style="fill:rgb(77,83,91);fill-rule:nonzero;"/>
        <path d="M100.768,339.828C100.623,339.828 100.505,339.71 100.505,339.565L100.505,336.467C100.505,332.299 97.305,328.908 93.372,328.908C89.439,328.908 86.239,332.299 86.239,336.467L86.239,339.565C86.239,339.71 86.122,339.828 85.977,339.828C85.832,339.828 85.715,339.71 85.715,339.565L85.715,336.467C85.715,332.01 89.15,328.384 93.372,328.384C97.594,328.384 101.03,332.01 101.03,336.467L101.03,339.565C101.03,339.71 100.913,339.828 100.768,339.828Z" style="fill:rgb(77,83,91);fill-rule:nonzero;"/>
        <path d="M93.372,328.81C97.359,328.81 100.604,332.245 100.604,336.467L100.604,339.565C100.604,339.656 100.677,339.729 100.768,339.729C100.858,339.729 100.932,339.656 100.932,339.565L100.932,336.467C100.932,332.064 97.54,328.482 93.372,328.482C89.204,328.482 85.813,332.064 85.813,336.467L85.813,339.565C85.813,339.656 85.887,339.729 85.977,339.729C86.067,339.729 86.141,339.656 86.141,339.565L86.141,336.467C86.141,332.245 89.385,328.81 93.372,328.81ZM100.768,339.926C100.569,339.926 100.407,339.764 100.407,339.565L100.407,336.467C100.407,332.354 97.251,329.007 93.372,329.007C89.493,329.007 86.337,332.354 86.337,336.467L86.337,339.565C86.337,339.764 86.176,339.926 85.977,339.926C85.778,339.926 85.617,339.764 85.617,339.565L85.617,336.467C85.617,331.956 89.096,328.286 93.372,328.286C97.648,328.286 101.128,331.956 101.128,336.467L101.128,339.565C101.128,339.764 100.966,339.926 100.768,339.926Z" style="fill:rgb(77,83,91);fill-rule:nonzero;"/>
    </g>
</svg>
