<?xml version="1.0" encoding="UTF-8" standalone="no"?>
<!DOCTYPE svg PUBLIC "-//W3C//DTD SVG 1.1//EN" "http://www.w3.org/Graphics/SVG/1.1/DTD/svg11.dtd">
<svg width="100%" height="100%" viewBox="0 0 77 77" version="1.1" xmlns="http://www.w3.org/2000/svg" xmlns:xlink="http://www.w3.org/1999/xlink" xml:space="preserve" xmlns:serif="http://www.serif.com/" style="fill-rule:evenodd;clip-rule:evenodd;stroke-linejoin:round;stroke-miterlimit:2;">
    <g transform="matrix(5.21159,0,0,5.21159,-2163.69,-1169.99)">
        <path d="M418.294,234.136L420.098,236.148C420.328,236.404 420.748,236.324 420.866,236L423.077,229.979L424.897,233.691C425.03,233.962 425.417,233.962 425.549,233.69L429.726,225.109C429.789,224.98 429.736,224.825 429.607,224.761C429.477,224.695 429.318,224.75 429.254,224.88L425.229,233.177L423.431,229.51C423.271,229.185 422.801,229.209 422.676,229.549L420.413,235.714L418.703,233.806C418.45,233.524 417.994,233.581 417.817,233.916L415.792,237.772L415.792,224.857C415.792,224.712 415.674,224.595 415.529,224.595C415.385,224.595 415.267,224.712 415.267,224.857L415.267,238.506C415.267,238.832 415.532,239.096 415.858,239.096L429.507,239.096C429.651,239.096 429.769,238.979 429.769,238.834C429.769,238.689 429.651,238.572 429.507,238.572L415.963,238.572L418.294,234.136Z" style="fill:rgb(77,83,91);fill-rule:nonzero;"/>
        <path d="M415.529,224.693C415.439,224.693 415.366,224.767 415.366,224.857L415.366,238.506C415.366,238.777 415.586,238.998 415.858,238.998L429.507,238.998C429.597,238.998 429.67,238.925 429.67,238.834C429.67,238.744 429.597,238.67 429.507,238.67L415.963,238.67L415.879,238.623L415.876,238.526L418.207,234.09L418.282,234.039L418.367,234.07L420.171,236.083C420.256,236.176 420.38,236.22 420.505,236.195C420.63,236.171 420.73,236.086 420.774,235.967L422.985,229.945L423.072,229.88L423.165,229.935L424.985,233.648C425.031,233.741 425.12,233.796 425.223,233.796C425.327,233.796 425.416,233.74 425.461,233.647L429.637,225.066L429.563,224.849L429.438,224.84L429.343,224.924L425.317,233.22L425.229,233.275L425.14,233.22L423.342,229.553C423.275,229.417 423.146,229.367 423.045,229.378C422.946,229.384 422.821,229.44 422.768,229.583L420.505,235.748L420.432,235.811L420.34,235.78L418.629,233.872C418.531,233.762 418.391,233.708 418.243,233.728C418.097,233.746 417.973,233.831 417.904,233.962L415.878,237.818L415.768,237.867L415.693,237.772L415.693,224.857C415.693,224.767 415.62,224.693 415.529,224.693ZM429.507,239.195L415.858,239.195C415.478,239.195 415.169,238.886 415.169,238.506L415.169,224.857C415.169,224.658 415.331,224.497 415.529,224.497C415.728,224.497 415.89,224.658 415.89,224.857L415.89,237.374L417.73,233.871C417.828,233.685 418.011,233.558 418.219,233.532C418.429,233.507 418.636,233.584 418.775,233.741L420.377,235.527L422.584,229.515C422.655,229.32 422.828,229.193 423.035,229.182C423.243,229.168 423.428,229.281 423.519,229.467L425.228,232.953L429.166,224.837C429.208,224.75 429.282,224.685 429.374,224.654C429.466,224.622 429.564,224.629 429.651,224.673C429.827,224.761 429.9,224.976 429.813,225.152L425.637,233.733C425.56,233.893 425.401,233.992 425.223,233.993C425.045,233.993 424.887,233.894 424.809,233.734L423.09,230.229L420.958,236.034C420.891,236.219 420.735,236.351 420.542,236.388C420.35,236.423 420.156,236.36 420.025,236.213L418.315,234.307L416.126,238.474L429.507,238.474C429.705,238.474 429.867,238.636 429.867,238.834C429.867,239.033 429.705,239.195 429.507,239.195Z" style="fill:rgb(77,83,91);fill-rule:nonzero;"/>
    </g>
</svg>
