<?xml version="1.0" encoding="UTF-8" standalone="no"?>
<!DOCTYPE svg PUBLIC "-//W3C//DTD SVG 1.1//EN" "http://www.w3.org/Graphics/SVG/1.1/DTD/svg11.dtd">
<svg width="100%" height="100%" viewBox="0 0 84 77" version="1.1" xmlns="http://www.w3.org/2000/svg" xmlns:xlink="http://www.w3.org/1999/xlink" xml:space="preserve" xmlns:serif="http://www.serif.com/" style="fill-rule:evenodd;clip-rule:evenodd;stroke-linejoin:round;stroke-miterlimit:2;">
    <g transform="matrix(4.33019,0,0,4.33019,-3213,-965.536)">
        <path d="M742.622,236.859L760.706,236.859L760.706,223.6L742.622,223.6L742.622,236.859ZM760.967,237.383L742.36,237.383C742.215,237.383 742.098,237.266 742.098,237.121L742.098,223.338C742.098,223.193 742.215,223.076 742.36,223.076L760.967,223.076C761.112,223.076 761.229,223.193 761.229,223.338L761.229,237.121C761.229,237.266 761.112,237.383 760.967,237.383Z" style="fill:rgb(77,83,91);fill-rule:nonzero;"/>
        <path d="M742.721,236.761L760.607,236.761L760.607,223.699L742.721,223.699L742.721,236.761ZM760.706,236.958L742.622,236.958L742.524,236.859L742.524,223.6L742.622,223.502L760.706,223.502L760.804,223.6L760.804,236.859L760.706,236.958ZM742.36,223.174C742.27,223.174 742.196,223.248 742.196,223.338L742.196,237.121C742.196,237.211 742.27,237.285 742.36,237.285L760.967,237.285C761.058,237.285 761.131,237.211 761.131,237.121L761.131,223.338C761.131,223.248 761.058,223.174 760.967,223.174L742.36,223.174ZM760.967,237.481L742.36,237.481C742.162,237.481 742,237.32 742,237.121L742,223.338C742,223.14 742.162,222.978 742.36,222.978L760.967,222.978C761.166,222.978 761.328,223.14 761.328,223.338L761.328,237.121C761.328,237.32 761.166,237.481 760.967,237.481Z" style="fill:rgb(77,83,91);fill-rule:nonzero;"/>
        <path d="M749.267,240.375C749.122,240.375 749.005,240.258 749.005,240.113L749.005,237.121C749.005,236.976 749.122,236.859 749.267,236.859C749.412,236.859 749.529,236.976 749.529,237.121L749.529,240.113C749.529,240.258 749.412,240.375 749.267,240.375Z" style="fill:rgb(77,83,91);fill-rule:nonzero;"/>
        <path d="M749.267,236.958C749.177,236.958 749.103,237.031 749.103,237.121L749.103,240.113C749.103,240.204 749.177,240.277 749.267,240.277C749.357,240.277 749.431,240.204 749.431,240.113L749.431,237.121C749.431,237.031 749.357,236.958 749.267,236.958ZM749.267,240.474C749.068,240.474 748.907,240.312 748.907,240.113L748.907,237.121C748.907,236.922 749.068,236.761 749.267,236.761C749.466,236.761 749.627,236.922 749.627,237.121L749.627,240.113C749.627,240.312 749.466,240.474 749.267,240.474Z" style="fill:rgb(77,83,91);fill-rule:nonzero;"/>
        <path d="M754.072,240.375C753.927,240.375 753.81,240.258 753.81,240.113L753.81,237.121C753.81,236.976 753.927,236.859 754.072,236.859C754.217,236.859 754.334,236.976 754.334,237.121L754.334,240.113C754.334,240.258 754.217,240.375 754.072,240.375Z" style="fill:rgb(77,83,91);fill-rule:nonzero;"/>
        <path d="M754.072,236.958C753.981,236.958 753.908,237.031 753.908,237.121L753.908,240.113C753.908,240.204 753.981,240.277 754.072,240.277C754.162,240.277 754.236,240.204 754.236,240.113L754.236,237.121C754.236,237.031 754.162,236.958 754.072,236.958ZM754.072,240.474C753.873,240.474 753.711,240.312 753.711,240.113L753.711,237.121C753.711,236.922 753.873,236.761 754.072,236.761C754.271,236.761 754.432,236.922 754.432,237.121L754.432,240.113C754.432,240.312 754.271,240.474 754.072,240.474Z" style="fill:rgb(77,83,91);fill-rule:nonzero;"/>
        <path d="M760.689,234.98L742.36,234.98C742.215,234.98 742.098,234.863 742.098,234.719C742.098,234.574 742.215,234.457 742.36,234.457L760.689,234.457C760.834,234.457 760.951,234.574 760.951,234.719C760.951,234.863 760.834,234.98 760.689,234.98Z" style="fill:rgb(77,83,91);fill-rule:nonzero;"/>
        <path d="M742.36,234.555C742.27,234.555 742.196,234.628 742.196,234.719C742.196,234.809 742.27,234.882 742.36,234.882L760.689,234.882C760.78,234.882 760.853,234.809 760.853,234.719C760.853,234.628 760.78,234.555 760.689,234.555L742.36,234.555ZM760.689,235.079L742.36,235.079C742.162,235.079 742,234.917 742,234.719C742,234.52 742.162,234.358 742.36,234.358L760.689,234.358C760.888,234.358 761.05,234.52 761.05,234.719C761.05,234.917 760.888,235.079 760.689,235.079Z" style="fill:rgb(77,83,91);fill-rule:nonzero;"/>
        <path d="M756.343,240.615L746.952,240.615C746.807,240.615 746.69,240.498 746.69,240.354C746.69,240.208 746.807,240.091 746.952,240.091L756.343,240.091C756.488,240.091 756.605,240.208 756.605,240.354C756.605,240.498 756.488,240.615 756.343,240.615Z" style="fill:rgb(77,83,91);fill-rule:nonzero;"/>
        <path d="M746.952,240.189C746.862,240.189 746.788,240.263 746.788,240.354C746.788,240.444 746.862,240.517 746.952,240.517L756.343,240.517C756.433,240.517 756.507,240.444 756.507,240.354C756.507,240.263 756.433,240.189 756.343,240.189L746.952,240.189ZM756.343,240.714L746.952,240.714C746.753,240.714 746.592,240.552 746.592,240.354C746.592,240.155 746.753,239.993 746.952,239.993L756.343,239.993C756.542,239.993 756.703,240.155 756.703,240.354C756.703,240.552 756.542,240.714 756.343,240.714Z" style="fill:rgb(77,83,91);fill-rule:nonzero;"/>
    </g>
</svg>
