<?xml version="1.0" encoding="UTF-8" standalone="no"?>
<!DOCTYPE svg PUBLIC "-//W3C//DTD SVG 1.1//EN" "http://www.w3.org/Graphics/SVG/1.1/DTD/svg11.dtd">
<svg width="100%" height="100%" viewBox="0 0 26 22" version="1.1" xmlns="http://www.w3.org/2000/svg" xmlns:xlink="http://www.w3.org/1999/xlink" xml:space="preserve" xmlns:serif="http://www.serif.com/" style="fill-rule:evenodd;clip-rule:evenodd;stroke-linejoin:round;stroke-miterlimit:2;">
    <g transform="matrix(0.118096,0,0,0.118096,-104.319,-102.63)">
        <path d="M969.586,1052.75C970.793,1052.9 972.009,1053.03 973.23,1053.13C992.031,1044.78 1007.91,1031.03 1018.99,1013.17C1029.74,995.852 1035.03,976.218 1034.56,956.311L1014.05,935.805C1022.39,979.096 1006.04,1024.92 969.586,1052.75Z" style="fill:rgb(34,34,33);fill-rule:nonzero;"/>
        <path d="M962.267,1051.8C962.453,1051.84 962.639,1051.88 962.826,1051.91C1001.91,1024.05 1018.68,975.432 1007.61,930.71L978.41,901.507C1001.87,949.21 997.128,1008.05 962.267,1051.8Z" style="fill:rgb(34,34,33);fill-rule:nonzero;"/>
        <path d="M1061.33,980.384C1056.39,1002.67 1044.51,1022.72 1026.97,1037.98C1021.84,1042.44 1016.37,1046.35 1010.63,1049.71C1039.3,1041.36 1062.51,1019.86 1073.18,992.24L1061.33,980.384Z" style="fill:rgb(34,34,33);fill-rule:nonzero;"/>
        <path d="M1056.68,977.084L1039.82,960.222C1039.55,979.5 1034.07,998.411 1023.64,1015.22C1013.45,1031.63 999.356,1044.7 982.713,1053.49L982.791,1053.49C986.621,1053.49 990.4,1053.26 994.116,1052.82C1025.67,1039.93 1049.8,1011.83 1056.68,977.084Z" style="fill:rgb(34,34,33);fill-rule:nonzero;"/>
        <path d="M964.749,889.193L944.594,869.038C908.86,882.851 883.342,917.629 883.342,958.083C883.342,1002.69 914.361,1040.39 955.891,1050.7C994.588,1003.74 996.664,938 964.749,889.193Z" style="fill:rgb(34,34,33);fill-rule:nonzero;"/>
        <path d="M1103.17,973.985C1103.17,921.509 1060.23,878.576 1007.76,878.576C995.737,878.576 984.22,880.834 973.602,884.939L1096.8,1008.14C1100.91,997.523 1103.17,986.005 1103.17,973.985Z" style="fill:rgb(34,34,33);fill-rule:nonzero;"/>
    </g>
</svg>
