<?xml version="1.0" encoding="UTF-8" standalone="no"?>
<!DOCTYPE svg PUBLIC "-//W3C//DTD SVG 1.1//EN" "http://www.w3.org/Graphics/SVG/1.1/DTD/svg11.dtd">
<svg width="100%" height="100%" viewBox="0 0 78 77" version="1.1" xmlns="http://www.w3.org/2000/svg" xmlns:xlink="http://www.w3.org/1999/xlink" xml:space="preserve" xmlns:serif="http://www.serif.com/" style="fill-rule:evenodd;clip-rule:evenodd;stroke-linejoin:round;stroke-miterlimit:2;">
    <g transform="matrix(4.00104,0,0,4.00104,-2759.79,-3829.86)">
        <path d="M690.39,975.79L690.39,961.659L708.574,961.659L708.574,975.79L690.39,975.79ZM708.574,957.839L708.574,961.136L690.39,961.136L690.39,957.839L708.574,957.839ZM708.836,957.314L690.128,957.314C689.983,957.314 689.866,957.433 689.866,957.577L689.866,976.052C689.866,976.196 689.983,976.313 690.128,976.313L708.836,976.313C708.981,976.313 709.098,976.196 709.098,976.052L709.098,957.577C709.098,957.433 708.981,957.314 708.836,957.314Z" style="fill:rgb(77,83,91);fill-rule:nonzero;"/>
        <path d="M690.488,961.037L708.476,961.037L708.476,957.938L690.488,957.938L690.488,961.037ZM708.574,961.233L690.39,961.233L690.292,961.136L690.292,957.839L690.39,957.741L708.574,957.741L708.672,957.839L708.672,961.136L708.574,961.233ZM690.488,975.691L708.476,975.691L708.476,961.758L690.488,961.758L690.488,975.691ZM708.574,975.888L690.39,975.888L690.292,975.79L690.292,961.659L690.39,961.562L708.574,961.562L708.672,961.659L708.672,975.79L708.574,975.888ZM690.127,957.413C690.037,957.413 689.964,957.486 689.964,957.577L689.964,976.052C689.964,976.143 690.037,976.216 690.127,976.216L708.836,976.216C708.926,976.216 709,976.143 709,976.052L709,957.577C709,957.486 708.926,957.413 708.836,957.413L690.127,957.413ZM708.836,976.412L690.127,976.412C689.929,976.412 689.767,976.25 689.767,976.052L689.767,957.577C689.767,957.378 689.929,957.217 690.127,957.217L708.836,957.217C709.035,957.217 709.196,957.378 709.196,957.577L709.196,976.052C709.196,976.25 709.035,976.412 708.836,976.412Z" style="fill:rgb(77,83,91);fill-rule:nonzero;"/>
        <path d="M691.958,959.175C692.145,959.175 692.296,959.326 692.296,959.512C692.296,959.698 692.145,959.85 691.958,959.85C691.772,959.85 691.621,959.698 691.621,959.512C691.621,959.326 691.772,959.175 691.958,959.175ZM691.958,960.374C692.434,960.374 692.82,959.987 692.82,959.512C692.82,959.037 692.434,958.65 691.958,958.65C691.483,958.65 691.097,959.037 691.097,959.512C691.097,959.987 691.483,960.374 691.958,960.374Z" style="fill:rgb(77,83,91);fill-rule:nonzero;"/>
        <path d="M691.958,959.272C691.827,959.272 691.72,959.38 691.72,959.512C691.72,959.644 691.827,959.751 691.958,959.751C692.091,959.751 692.198,959.644 692.198,959.512C692.198,959.38 692.091,959.272 691.958,959.272ZM691.958,959.947C691.718,959.947 691.523,959.752 691.523,959.512C691.523,959.271 691.718,959.076 691.958,959.076C692.199,959.076 692.395,959.271 692.395,959.512C692.395,959.752 692.199,959.947 691.958,959.947ZM691.958,958.749C691.538,958.749 691.195,959.091 691.195,959.512C691.195,959.933 691.538,960.275 691.958,960.275C692.379,960.275 692.722,959.933 692.722,959.512C692.722,959.091 692.379,958.749 691.958,958.749ZM691.958,960.472C691.429,960.472 690.999,960.041 690.999,959.512C690.999,958.982 691.429,958.552 691.958,958.552C692.488,958.552 692.918,958.982 692.918,959.512C692.918,960.041 692.488,960.472 691.958,960.472Z" style="fill:rgb(77,83,91);fill-rule:nonzero;"/>
        <path d="M694.137,959.175C694.324,959.175 694.475,959.326 694.475,959.512C694.475,959.698 694.324,959.85 694.137,959.85C693.951,959.85 693.8,959.698 693.8,959.512C693.8,959.326 693.951,959.175 694.137,959.175ZM694.137,960.374C694.612,960.374 694.999,959.987 694.999,959.512C694.999,959.037 694.612,958.65 694.137,958.65C693.662,958.65 693.275,959.037 693.275,959.512C693.275,959.987 693.662,960.374 694.137,960.374Z" style="fill:rgb(77,83,91);fill-rule:nonzero;"/>
        <path d="M694.137,959.272C694.005,959.272 693.898,959.38 693.898,959.512C693.898,959.644 694.005,959.751 694.137,959.751C694.269,959.751 694.376,959.644 694.376,959.512C694.376,959.38 694.269,959.272 694.137,959.272ZM694.137,959.947C693.897,959.947 693.702,959.752 693.702,959.512C693.702,959.271 693.897,959.076 694.137,959.076C694.377,959.076 694.573,959.271 694.573,959.512C694.573,959.752 694.377,959.947 694.137,959.947ZM694.137,958.749C693.716,958.749 693.374,959.091 693.374,959.512C693.374,959.933 693.716,960.275 694.137,960.275C694.558,960.275 694.9,959.933 694.9,959.512C694.9,959.091 694.558,958.749 694.137,958.749ZM694.137,960.472C693.608,960.472 693.177,960.041 693.177,959.512C693.177,958.982 693.608,958.552 694.137,958.552C694.667,958.552 695.097,958.982 695.097,959.512C695.097,960.041 694.667,960.472 694.137,960.472Z" style="fill:rgb(77,83,91);fill-rule:nonzero;"/>
        <path d="M696.316,959.175C696.502,959.175 696.653,959.326 696.653,959.512C696.653,959.698 696.502,959.85 696.316,959.85C696.129,959.85 695.979,959.698 695.979,959.512C695.979,959.326 696.129,959.175 696.316,959.175ZM696.316,960.374C696.791,960.374 697.177,959.987 697.177,959.512C697.177,959.037 696.791,958.65 696.316,958.65C695.841,958.65 695.454,959.037 695.454,959.512C695.454,959.987 695.841,960.374 696.316,960.374Z" style="fill:rgb(77,83,91);fill-rule:nonzero;"/>
        <path d="M696.316,959.272C696.184,959.272 696.077,959.38 696.077,959.512C696.077,959.644 696.184,959.751 696.316,959.751C696.448,959.751 696.555,959.644 696.555,959.512C696.555,959.38 696.448,959.272 696.316,959.272ZM696.316,959.947C696.076,959.947 695.88,959.752 695.88,959.512C695.88,959.271 696.076,959.076 696.316,959.076C696.556,959.076 696.751,959.271 696.751,959.512C696.751,959.752 696.556,959.947 696.316,959.947ZM696.316,958.749C695.895,958.749 695.552,959.091 695.552,959.512C695.552,959.933 695.895,960.275 696.316,960.275C696.737,960.275 697.079,959.933 697.079,959.512C697.079,959.091 696.737,958.749 696.316,958.749ZM696.316,960.472C695.787,960.472 695.356,960.041 695.356,959.512C695.356,958.982 695.787,958.552 696.316,958.552C696.845,958.552 697.276,958.982 697.276,959.512C697.276,960.041 696.845,960.472 696.316,960.472Z" style="fill:rgb(77,83,91);fill-rule:nonzero;"/>
        <path d="M696.53,965.491C696.409,965.412 696.247,965.446 696.167,965.567L694.5,968.11L694.5,968.397L696.167,970.941L696.387,971.061L696.53,971.018C696.651,970.938 696.685,970.775 696.605,970.654L695.033,968.254L696.605,965.854C696.685,965.733 696.651,965.57 696.53,965.491Z" style="fill:rgb(77,83,91);fill-rule:nonzero;"/>
        <path d="M696.387,965.547L696.354,965.55L696.25,965.621L694.583,968.164L694.583,968.344L696.25,970.888L696.476,970.935L696.546,970.832L696.523,970.708L694.95,968.308L694.95,968.2L696.523,965.801L696.546,965.677L696.476,965.573L696.387,965.547ZM696.387,971.158C696.264,971.158 696.151,971.098 696.085,970.995L694.418,968.452C694.339,968.332 694.339,968.177 694.418,968.057L696.085,965.514C696.138,965.433 696.219,965.377 696.314,965.357C696.408,965.34 696.504,965.356 696.583,965.409C696.664,965.462 696.719,965.543 696.739,965.637C696.759,965.731 696.74,965.827 696.688,965.908L695.15,968.254L696.688,970.601C696.74,970.681 696.759,970.777 696.739,970.872C696.719,970.966 696.664,971.047 696.583,971.1L696.387,971.158Z" style="fill:rgb(77,83,91);fill-rule:nonzero;"/>
        <path d="M702.84,965.567C702.761,965.446 702.599,965.412 702.478,965.491C702.356,965.57 702.323,965.733 702.402,965.854L703.975,968.254L702.402,970.654C702.323,970.775 702.356,970.938 702.478,971.018L702.621,971.061L702.84,970.941L704.507,968.397L704.507,968.11L702.84,965.567Z" style="fill:rgb(77,83,91);fill-rule:nonzero;"/>
        <path d="M702.621,965.547L702.531,965.573L702.461,965.677L702.484,965.801L704.057,968.2L704.057,968.308L702.484,970.708L702.461,970.832L702.531,970.935L702.758,970.888L704.425,968.344L704.425,968.165L702.758,965.621L702.654,965.55L702.621,965.547ZM702.621,971.158L702.423,971.1C702.343,971.047 702.288,970.966 702.268,970.872C702.249,970.777 702.267,970.681 702.32,970.601L703.857,968.254L702.32,965.908C702.267,965.827 702.249,965.731 702.268,965.637C702.288,965.543 702.343,965.462 702.424,965.409C702.504,965.356 702.601,965.339 702.694,965.357C702.789,965.377 702.87,965.433 702.922,965.514L704.589,968.057C704.668,968.177 704.668,968.332 704.589,968.452L702.922,970.995C702.855,971.098 702.743,971.158 702.621,971.158Z" style="fill:rgb(77,83,91);fill-rule:nonzero;"/>
        <path d="M701.251,963.353C701.116,963.304 700.965,963.372 700.915,963.508L697.601,972.494C697.551,972.63 697.621,972.78 697.756,972.831L697.847,972.847C697.954,972.847 698.054,972.781 698.093,972.676L701.406,963.689C701.457,963.554 701.387,963.403 701.251,963.353Z" style="fill:rgb(77,83,91);fill-rule:nonzero;"/>
        <path d="M701.161,963.436L701.007,963.543L697.693,972.528L697.791,972.739L698,972.642L701.314,963.655L701.217,963.445L701.161,963.436ZM697.847,972.945L697.722,972.923C697.536,972.854 697.44,972.646 697.509,972.46L700.822,963.475C700.891,963.288 701.099,963.192 701.285,963.261C701.471,963.329 701.567,963.537 701.499,963.724L698.185,972.71C698.133,972.851 697.997,972.945 697.847,972.945Z" style="fill:rgb(77,83,91);fill-rule:nonzero;"/>
    </g>
</svg>
