<?xml version="1.0" encoding="UTF-8" standalone="no"?>
<!DOCTYPE svg PUBLIC "-//W3C//DTD SVG 1.1//EN" "http://www.w3.org/Graphics/SVG/1.1/DTD/svg11.dtd">
<svg width="100%" height="100%" viewBox="0 0 214 72" version="1.1" xmlns="http://www.w3.org/2000/svg" xmlns:xlink="http://www.w3.org/1999/xlink" xml:space="preserve" xmlns:serif="http://www.serif.com/" style="fill-rule:evenodd;clip-rule:evenodd;stroke-linejoin:round;stroke-miterlimit:2;">
    <g transform="matrix(1,0,0,1,-514.47,-48.4215)">
        <path d="M521.729,120.358C520.623,120.358 519.35,120.272 517.909,120.099C516.469,119.926 515.322,119.724 514.47,119.494L514.47,108.95C515.945,109.365 517.327,109.573 518.618,109.573C521.36,109.573 522.732,107.614 522.732,103.696L522.732,64.185L536.248,64.185L536.248,106.531C536.248,110.84 534.986,114.222 532.463,116.676C529.939,119.131 526.361,120.358 521.729,120.358ZM522.386,54.436C522.386,52.408 522.951,50.899 524.08,49.908C525.209,48.917 527.03,48.422 529.542,48.422C532.053,48.422 533.886,48.929 535.038,49.943C536.19,50.957 536.766,52.454 536.766,54.436C536.766,58.4 534.358,60.382 529.542,60.382C524.771,60.382 522.386,58.4 522.386,54.436Z" style="fill:white;fill-rule:nonzero;"/>
        <path d="M576.008,83.681C576.008,90.088 574.285,95.083 570.84,98.666C567.395,102.25 562.573,104.042 556.373,104.042C550.428,104.042 545.698,102.21 542.183,98.545C538.669,94.881 536.911,89.926 536.911,83.681C536.911,77.297 538.634,72.337 542.079,68.799C545.525,65.262 550.358,63.493 556.581,63.493C560.429,63.493 563.829,64.311 566.778,65.948C569.728,67.584 572.004,69.929 573.606,72.982C575.207,76.036 576.008,79.602 576.008,83.681ZM550.635,83.681C550.635,87.046 551.084,89.61 551.983,91.372C552.882,93.135 554.391,94.017 556.512,94.017C558.609,94.017 560.089,93.135 560.954,91.372C561.818,89.61 562.25,87.046 562.25,83.681C562.25,80.339 561.812,77.816 560.936,76.111C560.061,74.405 558.563,73.553 556.442,73.553C554.368,73.553 552.882,74.4 551.983,76.093C551.084,77.787 550.635,80.316 550.635,83.681Z" style="fill:white;fill-rule:nonzero;"/>
        <path d="M600.558,63.493C604.822,63.493 608.204,65.279 610.704,68.851C613.205,72.423 614.455,77.367 614.455,83.681C614.455,90.042 613.193,95.025 610.67,98.632C608.146,102.238 604.637,104.042 600.144,104.042C598.692,104.042 597.401,103.886 596.272,103.575C595.143,103.264 594.134,102.832 593.247,102.279C592.36,101.726 591.329,100.804 590.153,99.513L589.324,99.513L587.181,103.35L576.637,103.35L576.637,49.562L590.153,49.562L590.153,61.73C590.153,63.182 589.992,65.683 589.669,69.232L590.153,69.232C591.467,67.204 592.982,65.74 594.699,64.841C596.416,63.943 598.369,63.493 600.558,63.493ZM595.615,74.106C593.725,74.106 592.343,74.762 591.467,76.076C590.591,77.39 590.153,79.452 590.153,82.264L590.153,84.165C590.153,87.368 590.591,89.667 591.467,91.061C592.343,92.456 593.772,93.153 595.753,93.153C597.344,93.153 598.565,92.34 599.418,90.716C600.27,89.091 600.697,86.7 600.697,83.543C600.697,77.251 599.003,74.106 595.615,74.106Z" style="fill:white;fill-rule:nonzero;"/>
        <path d="M633.993,104.042C627.471,104.042 622.407,102.308 618.8,98.839C615.193,95.371 613.39,90.433 613.39,84.027C613.39,77.413 615.061,72.337 618.403,68.799C621.744,65.262 626.515,63.493 632.714,63.493C638.613,63.493 643.171,65.032 646.385,68.108C649.6,71.185 651.208,75.615 651.208,81.4L651.208,87.414L627.045,87.414C627.137,89.604 627.938,91.321 629.447,92.565C630.957,93.81 633.013,94.432 635.617,94.432C637.991,94.432 640.175,94.207 642.168,93.758C644.162,93.308 646.322,92.542 648.65,91.459L648.65,101.173C646.53,102.256 644.34,103.005 642.082,103.42C639.823,103.834 637.127,104.042 633.993,104.042ZM633.198,72.688C631.608,72.688 630.277,73.19 629.205,74.192C628.133,75.195 627.505,76.767 627.321,78.911L638.936,78.911C638.89,77.021 638.354,75.511 637.329,74.382C636.303,73.253 634.926,72.688 633.198,72.688Z" style="fill:white;fill-rule:nonzero;"/>
        <path d="M675.412,63.493C676.588,63.493 677.705,63.585 678.765,63.77L679.526,63.908L678.316,76.664C677.21,76.387 675.677,76.249 673.719,76.249C670.769,76.249 668.625,76.923 667.289,78.271C665.952,79.619 665.284,81.561 665.284,84.096L665.284,103.35L651.768,103.35L651.768,64.185L661.827,64.185L663.936,70.441L664.593,70.441C665.722,68.367 667.295,66.691 669.311,65.412C671.328,64.133 673.361,63.493 675.412,63.493Z" style="fill:white;fill-rule:nonzero;"/>
        <path d="M701.553,63.493C702.728,63.493 703.846,63.585 704.906,63.77L705.666,63.908L704.457,76.664C703.35,76.387 701.818,76.249 699.859,76.249C696.909,76.249 694.766,76.923 693.429,78.271C692.093,79.619 691.424,81.561 691.424,84.096L691.424,103.35L677.908,103.35L677.908,64.185L687.968,64.185L690.076,70.441L690.733,70.441C691.862,68.367 693.435,66.691 695.452,65.412C697.468,64.133 699.502,63.493 701.553,63.493Z" style="fill:white;fill-rule:nonzero;"/>
        <path d="M726.698,85.513L715.29,85.513L713.527,52.812L728.461,52.812L726.698,85.513ZM713.666,97.612C713.666,95.515 714.288,93.884 715.532,92.721C716.777,91.557 718.586,90.975 720.959,90.975C723.31,90.975 725.09,91.557 726.3,92.721C727.51,93.884 728.115,95.515 728.115,97.612C728.115,99.686 727.487,101.305 726.231,102.469C724.975,103.633 723.218,104.215 720.959,104.215C718.678,104.215 716.892,103.633 715.601,102.469C714.311,101.305 713.666,99.686 713.666,97.612Z" style="fill:rgb(0,150,255);fill-rule:nonzero;"/>
    </g>
</svg>
