<?xml version="1.0" encoding="UTF-8" standalone="no"?>
<!DOCTYPE svg PUBLIC "-//W3C//DTD SVG 1.1//EN" "http://www.w3.org/Graphics/SVG/1.1/DTD/svg11.dtd">
<svg width="100%" height="100%" viewBox="0 0 112 115" version="1.1" xmlns="http://www.w3.org/2000/svg" xmlns:xlink="http://www.w3.org/1999/xlink" xml:space="preserve" xmlns:serif="http://www.serif.com/" style="fill-rule:evenodd;clip-rule:evenodd;stroke-linejoin:round;stroke-miterlimit:2;">
    <g transform="matrix(0.468518,0,0,0.468518,-412.794,-56.1786)">
        <path d="M1050.61,311.19L1050.17,311.953L944.878,311.953L892.231,220.765L944.878,129.578L945.758,129.578L957.692,150.249L970.407,128.226L972.082,128.226L958.53,151.7L964.925,162.776L984.872,128.226L987.105,128.226L966.042,164.709L972.019,175.062L999.059,128.226L1002.41,128.226L973.692,177.962L979.11,187.345L1013.24,128.226L1017.71,128.226L981.344,191.214L986.273,199.752L1027.57,128.226L1033.15,128.226L989.065,204.588L993.366,212.038L1041.75,128.226L1048.46,128.226L996.717,217.84L1000.86,225.017L1052.7,135.231L1057.17,142.963L1005.33,232.754L1050.61,311.19ZM1055.75,119.907L939.295,119.907L881.063,220.765L939.295,321.624L1055.75,321.624L1113.99,220.765L1055.75,119.907Z" style="fill:rgb(194,194,197);fill-rule:nonzero;"/>
        <path d="M895.043,358.743C895.043,356.961 893.712,356.071 891.05,356.071L885.496,356.071L885.496,361.414L891.05,361.414C893.712,361.414 895.043,360.523 895.043,358.743ZM885.496,348.296L885.496,353.4L890.362,353.4C891.561,353.4 892.482,353.184 893.126,352.752C893.77,352.321 894.091,351.69 894.091,350.862C894.091,350.015 893.77,349.376 893.126,348.944C892.482,348.512 891.561,348.296 890.362,348.296L885.496,348.296ZM897.608,356.164C898.208,356.949 898.508,357.922 898.508,359.086C898.508,360.691 897.891,361.929 896.656,362.802C895.422,363.674 893.624,364.111 891.262,364.111L882.059,364.111L882.059,345.599L890.732,345.599C892.918,345.599 894.603,346.026 895.783,346.881C896.965,347.737 897.556,348.914 897.556,350.412C897.556,351.329 897.344,352.14 896.921,352.845C896.498,353.55 895.916,354.097 895.176,354.485C896.197,354.82 897.009,355.379 897.608,356.164Z" style="fill:rgb(194,194,197);fill-rule:nonzero;"/>
        <path d="M918.342,349.459C917.565,348.825 916.429,348.507 914.93,348.507L910.91,348.507L910.91,355.886L914.93,355.886C916.429,355.886 917.565,355.565 918.342,354.92C919.117,354.278 919.505,353.365 919.505,352.184C919.505,351.002 919.117,350.094 918.342,349.459ZM919.585,364.111L915.803,358.689C915.645,358.708 915.406,358.716 915.089,358.716L910.91,358.716L910.91,364.111L907.473,364.111L907.473,345.599L915.089,345.599C916.692,345.599 918.09,345.863 919.28,346.392C920.471,346.921 921.383,347.679 922.018,348.667C922.652,349.654 922.97,350.827 922.97,352.184C922.97,353.577 922.63,354.776 921.951,355.781C921.272,356.786 920.299,357.535 919.029,358.028L923.287,364.111L919.585,364.111Z" style="fill:rgb(194,194,197);fill-rule:nonzero;"/>
        <path d="M942.963,357.129L939.472,349.037L936.008,357.129L942.963,357.129ZM944.1,359.827L934.844,359.827L933.019,364.111L929.476,364.111L937.806,345.599L941.19,345.599L949.548,364.111L945.951,364.111L944.1,359.827Z" style="fill:rgb(194,194,197);fill-rule:nonzero;"/>
        <path d="M973.64,345.599L973.64,364.111L970.81,364.111L960.602,351.576L960.602,364.111L957.19,364.111L957.19,345.599L960.02,345.599L970.228,358.134L970.228,345.599L973.64,345.599Z" style="fill:rgb(194,194,197);fill-rule:nonzero;"/>
        <path d="M991.835,361.202C993.192,361.202 994.387,360.942 995.418,360.421C996.449,359.902 997.243,359.162 997.798,358.2C998.354,357.24 998.632,356.125 998.632,354.855C998.632,353.585 998.354,352.47 997.798,351.509C997.243,350.548 996.449,349.808 995.418,349.288C994.387,348.768 993.192,348.507 991.835,348.507L987.339,348.507L987.339,361.202L991.835,361.202ZM983.901,345.599L991.993,345.599C993.968,345.599 995.723,345.982 997.256,346.75C998.79,347.516 999.98,348.6 1000.83,350.001C1001.67,351.404 1002.1,353.021 1002.1,354.855C1002.1,356.689 1001.67,358.306 1000.83,359.708C999.98,361.109 998.79,362.194 997.256,362.96C995.723,363.727 993.968,364.111 991.993,364.111L983.901,364.111L983.901,345.599Z" style="fill:rgb(194,194,197);fill-rule:nonzero;"/>
        <path d="M1040.07,345.599L1040.07,364.111L1037.24,364.111L1027.03,351.576L1027.03,364.111L1023.62,364.111L1023.62,345.599L1026.45,345.599L1036.66,358.134L1036.66,345.599L1040.07,345.599Z" style="fill:rgb(194,194,197);fill-rule:nonzero;"/>
        <path d="M1061.2,357.129L1057.71,349.037L1054.25,357.129L1061.2,357.129ZM1062.34,359.827L1053.08,359.827L1051.26,364.111L1047.71,364.111L1056.04,345.599L1059.43,345.599L1067.79,364.111L1064.19,364.111L1062.34,359.827Z" style="fill:rgb(194,194,197);fill-rule:nonzero;"/>
        <path d="M1092.43,364.111L1092.41,351.84L1086.33,361.996L1084.79,361.996L1078.71,351.999L1078.71,364.111L1075.43,364.111L1075.43,345.599L1078.26,345.599L1085.61,357.87L1092.83,345.599L1095.66,345.599L1095.69,364.111L1092.43,364.111Z" style="fill:rgb(194,194,197);fill-rule:nonzero;"/>
        <path d="M1119.86,361.228L1119.86,364.111L1105.97,364.111L1105.97,345.599L1119.49,345.599L1119.49,348.481L1109.41,348.481L1109.41,353.294L1118.35,353.294L1118.35,356.125L1109.41,356.125L1109.41,361.228L1119.86,361.228Z" style="fill:rgb(194,194,197);fill-rule:nonzero;"/>
    </g>
</svg>
