<?xml version="1.0" encoding="UTF-8" standalone="no"?>
<!DOCTYPE svg PUBLIC "-//W3C//DTD SVG 1.1//EN" "http://www.w3.org/Graphics/SVG/1.1/DTD/svg11.dtd">
<svg width="100%" height="100%" viewBox="0 0 145 104" version="1.1" xmlns="http://www.w3.org/2000/svg" xmlns:xlink="http://www.w3.org/1999/xlink" xml:space="preserve" xmlns:serif="http://www.serif.com/" style="fill-rule:evenodd;clip-rule:evenodd;stroke-linejoin:round;stroke-miterlimit:2;">
    <g transform="matrix(0.468518,0,0,0.468518,-229.807,-55.1816)">
        <path d="M553.833,226.871C542.323,226.871 532.906,217.454 532.906,205.944C532.906,194.434 542.323,185.017 553.833,185.017C565.343,185.017 574.76,194.434 574.76,205.944C574.76,217.454 565.343,226.871 553.833,226.871Z" style="fill:rgb(194,194,197);fill-rule:nonzero;"/>
        <path d="M708.254,178.335C708.254,145.03 681.003,117.779 647.696,117.779C614.39,117.779 587.139,145.03 587.139,178.335L587.139,266.828C587.139,266.828 708.243,253.344 708.253,178.345C708.253,178.342 708.254,178.339 708.254,178.336L708.254,178.335Z" style="fill:rgb(194,194,197);fill-rule:nonzero;"/>
        <path d="M532.629,306.957C526.539,306.957 521.557,301.974 521.557,295.884C521.557,289.795 526.539,284.813 532.629,284.813C538.718,284.813 543.7,289.795 543.7,295.884C543.7,301.974 538.718,306.957 532.629,306.957ZM490.497,295.875L490.497,295.884C490.497,319.057 509.456,338.016 532.629,338.016C555.801,338.016 574.76,319.057 574.76,295.884L574.76,234.319C574.76,234.319 490.508,243.699 490.497,295.875Z" style="fill:rgb(194,194,197);fill-rule:nonzero;"/>
        <path d="M595.042,311.743C592.799,310.523 591.041,308.837 589.769,306.686C588.496,304.536 587.86,302.109 587.86,299.406C587.86,296.705 588.503,294.278 589.789,292.126C591.073,289.975 592.839,288.29 595.081,287.069C597.324,285.849 599.836,285.24 602.617,285.24C604.873,285.24 606.933,285.633 608.796,286.42C610.658,287.208 612.232,288.348 613.518,289.843L610.212,292.953C608.218,290.801 605.766,289.725 602.854,289.725C600.965,289.725 599.272,290.139 597.777,290.965C596.281,291.792 595.114,292.94 594.274,294.409C593.435,295.878 593.016,297.543 593.016,299.406C593.016,301.269 593.435,302.935 594.274,304.404C595.114,305.874 596.281,307.021 597.777,307.847C599.272,308.673 600.965,309.086 602.854,309.086C605.766,309.086 608.218,307.999 610.212,305.821L613.518,308.968C612.232,310.464 610.651,311.605 608.775,312.392C606.899,313.179 604.834,313.573 602.578,313.573C599.797,313.573 597.285,312.962 595.042,311.743Z" style="fill:rgb(194,194,197);fill-rule:nonzero;"/>
        <path d="M635.673,307.847C637.142,307.021 638.296,305.867 639.136,304.384C639.976,302.902 640.396,301.243 640.396,299.406C640.396,297.57 639.976,295.911 639.136,294.428C638.296,292.946 637.142,291.792 635.673,290.965C634.203,290.139 632.551,289.725 630.715,289.725C628.878,289.725 627.226,290.139 625.756,290.965C624.287,291.792 623.133,292.946 622.293,294.428C621.453,295.911 621.034,297.57 621.034,299.406C621.034,301.243 621.453,302.902 622.293,304.384C623.133,305.867 624.287,307.021 625.756,307.847C627.226,308.673 628.878,309.086 630.715,309.086C632.551,309.086 634.203,308.673 635.673,307.847ZM623.12,311.743C620.863,310.523 619.092,308.831 617.808,306.667C616.521,304.502 615.879,302.082 615.879,299.406C615.879,296.73 616.521,294.31 617.808,292.146C619.092,289.981 620.863,288.29 623.12,287.069C625.376,285.849 627.907,285.24 630.715,285.24C633.521,285.24 636.053,285.849 638.31,287.069C640.565,288.29 642.336,289.975 643.622,292.126C644.907,294.278 645.55,296.705 645.55,299.406C645.55,302.109 644.907,304.536 643.622,306.686C642.336,308.837 640.565,310.523 638.31,311.743C636.053,312.962 633.521,313.573 630.715,313.573C627.907,313.573 625.376,312.962 623.12,311.743Z" style="fill:rgb(194,194,197);fill-rule:nonzero;"/>
        <path d="M676.283,313.179L676.244,294.92L667.193,310.031L664.911,310.031L655.86,295.156L655.86,313.179L650.98,313.179L650.98,285.633L655.191,285.633L666.131,303.892L676.874,285.633L681.084,285.633L681.124,313.179L676.283,313.179Z" style="fill:rgb(194,194,197);fill-rule:nonzero;"/>
        <path d="M704.734,299.485C705.888,298.541 706.466,297.19 706.466,295.431C706.466,293.674 705.888,292.323 704.734,291.378C703.579,290.434 701.887,289.961 699.657,289.961L693.676,289.961L693.676,300.902L699.657,300.902C701.887,300.902 703.579,300.429 704.734,299.485ZM706.131,286.814C707.901,287.6 709.26,288.729 710.204,290.198C711.148,291.667 711.62,293.412 711.62,295.431C711.62,297.425 711.148,299.164 710.204,300.646C709.26,302.128 707.901,303.262 706.131,304.049C704.36,304.836 702.28,305.23 699.894,305.23L693.676,305.23L693.676,313.179L688.561,313.179L688.561,285.633L699.894,285.633C702.28,285.633 704.36,286.027 706.131,286.814Z" style="fill:rgb(194,194,197);fill-rule:nonzero;"/>
        <path d="M731.533,302.791L726.338,290.749L721.184,302.791L731.533,302.791ZM733.225,306.804L719.452,306.804L716.736,313.179L711.464,313.179L723.859,285.633L728.896,285.633L741.331,313.179L735.979,313.179L733.225,306.804Z" style="fill:rgb(194,194,197);fill-rule:nonzero;"/>
        <path d="M769.31,285.633L769.31,313.179L765.099,313.179L749.909,294.527L749.909,313.179L744.833,313.179L744.833,285.633L749.044,285.633L764.233,304.286L764.233,285.633L769.31,285.633Z" style="fill:rgb(194,194,197);fill-rule:nonzero;"/>
        <path d="M788.592,303.459L788.592,313.179L783.477,313.179L783.477,303.538L772.654,285.633L778.125,285.633L786.191,299.052L794.338,285.633L799.374,285.633L788.592,303.459Z" style="fill:rgb(194,194,197);fill-rule:nonzero;"/>
    </g>
</svg>
