<?xml version="1.0" encoding="UTF-8" standalone="no"?>
<!DOCTYPE svg PUBLIC "-//W3C//DTD SVG 1.1//EN" "http://www.w3.org/Graphics/SVG/1.1/DTD/svg11.dtd">
<svg width="100%" height="100%" viewBox="0 0 96 115" version="1.1" xmlns="http://www.w3.org/2000/svg" xmlns:xlink="http://www.w3.org/1999/xlink" xml:space="preserve" xmlns:serif="http://www.serif.com/" style="fill-rule:evenodd;clip-rule:evenodd;stroke-linejoin:round;stroke-miterlimit:2;">
    <g transform="matrix(0.468518,0,0,0.468518,-59.3566,-57.5209)">
        <path d="M158.036,122.772L194.143,158.878L294.86,158.878L294.86,259.596L330.967,295.702L330.967,122.772L158.036,122.772Z" style="fill:rgb(194,194,197);fill-rule:nonzero;"/>
        <path d="M263.018,301.592L154.156,301.592L154.156,189.168L159.091,189.168L159.091,296.658L263.018,296.658L263.018,301.592ZM127.704,158.878L127.704,326.035L294.86,326.035L294.86,259.596L194.143,158.878L127.704,158.878Z" style="fill:rgb(194,194,197);fill-rule:nonzero;"/>
        <path d="M141.156,363.492C141.297,363.492 141.425,363.549 141.539,363.664L142.545,364.761C141.769,365.661 140.827,366.361 139.722,366.864C138.615,367.366 137.281,367.618 135.722,367.618C134.354,367.618 133.116,367.381 132.006,366.91C130.895,366.438 129.947,365.777 129.162,364.926C128.378,364.076 127.77,363.055 127.338,361.866C126.906,360.675 126.69,359.366 126.69,357.938C126.69,356.51 126.922,355.201 127.385,354.011C127.847,352.821 128.496,351.798 129.335,350.943C130.172,350.088 131.175,349.424 132.343,348.953C133.511,348.482 134.8,348.246 136.211,348.246C137.604,348.246 138.805,348.461 139.813,348.894C140.823,349.326 141.72,349.912 142.505,350.652L141.672,351.829C141.61,351.917 141.539,351.99 141.46,352.047C141.381,352.105 141.267,352.133 141.116,352.133C141.002,352.133 140.881,352.091 140.753,352.007C140.625,351.924 140.473,351.821 140.297,351.697C140.12,351.574 139.913,351.441 139.675,351.3C139.438,351.16 139.155,351.027 138.829,350.904C138.503,350.78 138.123,350.676 137.691,350.592C137.26,350.509 136.762,350.467 136.197,350.467C135.184,350.467 134.256,350.641 133.414,350.99C132.572,351.337 131.847,351.833 131.239,352.477C130.631,353.121 130.156,353.905 129.817,354.831C129.478,355.756 129.309,356.792 129.309,357.938C129.309,359.12 129.478,360.172 129.817,361.098C130.156,362.024 130.619,362.806 131.206,363.446C131.792,364.084 132.486,364.572 133.288,364.907C134.091,365.242 134.954,365.409 135.88,365.409C136.444,365.409 136.951,365.376 137.4,365.31C137.851,365.244 138.267,365.14 138.65,365C139.034,364.858 139.391,364.68 139.722,364.463C140.052,364.248 140.385,363.99 140.72,363.69C140.869,363.558 141.015,363.492 141.156,363.492Z" style="fill:rgb(194,194,197);fill-rule:nonzero;"/>
        <path d="M167.496,357.938C167.496,356.775 167.337,355.73 167.02,354.804C166.702,353.878 166.253,353.096 165.671,352.458C165.089,351.818 164.384,351.327 163.556,350.983C162.727,350.639 161.801,350.467 160.778,350.467C159.765,350.467 158.844,350.639 158.015,350.983C157.187,351.327 156.479,351.818 155.893,352.458C155.307,353.096 154.854,353.878 154.537,354.804C154.22,355.73 154.062,356.775 154.062,357.938C154.062,359.102 154.22,360.144 154.537,361.065C154.854,361.987 155.307,362.767 155.893,363.406C156.479,364.045 157.187,364.535 158.015,364.874C158.844,365.213 159.765,365.382 160.778,365.382C161.801,365.382 162.727,365.213 163.556,364.874C164.384,364.535 165.089,364.045 165.671,363.406C166.253,362.767 166.702,361.987 167.02,361.065C167.337,360.144 167.496,359.102 167.496,357.938ZM170.127,357.938C170.127,359.358 169.902,360.66 169.453,361.845C169.003,363.031 168.368,364.051 167.549,364.907C166.729,365.762 165.744,366.425 164.594,366.897C163.443,367.369 162.171,367.604 160.778,367.604C159.386,367.604 158.116,367.369 156.971,366.897C155.824,366.425 154.842,365.762 154.021,364.907C153.202,364.051 152.567,363.031 152.117,361.845C151.668,360.66 151.443,359.358 151.443,357.938C151.443,356.519 151.668,355.216 152.117,354.031C152.567,352.845 153.202,351.823 154.021,350.963C154.842,350.103 155.824,349.436 156.971,348.959C158.116,348.484 159.386,348.246 160.778,348.246C162.171,348.246 163.443,348.484 164.594,348.959C165.744,349.436 166.729,350.103 167.549,350.963C168.368,351.823 169.003,352.845 169.453,354.031C169.902,355.216 170.127,356.519 170.127,357.938Z" style="fill:rgb(194,194,197);fill-rule:nonzero;"/>
        <path d="M189.89,361.224C189.981,361.458 190.072,361.694 190.16,361.931C190.248,361.685 190.341,361.449 190.438,361.224C190.535,361 190.646,360.772 190.769,360.543L197.182,348.894C197.296,348.691 197.415,348.568 197.539,348.523C197.662,348.479 197.839,348.458 198.067,348.458L199.959,348.458L199.959,367.406L197.711,367.406L197.711,353.482C197.711,353.296 197.715,353.098 197.724,352.887C197.732,352.675 197.746,352.459 197.764,352.239L191.271,364.086C191.051,364.484 190.742,364.682 190.346,364.682L189.976,364.682C189.579,364.682 189.27,364.484 189.05,364.086L182.412,352.2C182.438,352.428 182.458,352.654 182.472,352.874C182.484,353.094 182.491,353.296 182.491,353.482L182.491,367.406L180.243,367.406L180.243,348.458L182.134,348.458C182.363,348.458 182.539,348.479 182.663,348.523C182.786,348.568 182.905,348.691 183.02,348.894L189.565,360.556C189.688,360.768 189.797,360.991 189.89,361.224Z" style="fill:rgb(194,194,197);fill-rule:nonzero;"/>
        <path d="M214.001,358.282L217.042,358.282C217.774,358.282 218.42,358.185 218.979,357.991C219.539,357.797 220.009,357.526 220.388,357.178C220.767,356.83 221.054,356.414 221.247,355.928C221.441,355.444 221.538,354.91 221.538,354.329C221.538,353.121 221.166,352.177 220.421,351.499C219.676,350.82 218.55,350.48 217.042,350.48L214.001,350.48L214.001,358.282ZM214.001,360.318L214.001,367.406L211.449,367.406L211.449,348.458L217.042,348.458C218.241,348.458 219.283,348.596 220.17,348.874C221.056,349.152 221.789,349.546 222.371,350.057C222.953,350.569 223.387,351.186 223.674,351.909C223.96,352.631 224.104,353.438 224.104,354.329C224.104,355.209 223.949,356.016 223.641,356.748C223.332,357.48 222.88,358.11 222.285,358.639C221.69,359.167 220.952,359.58 220.07,359.875C219.188,360.17 218.18,360.318 217.042,360.318L214.001,360.318Z" style="fill:rgb(194,194,197);fill-rule:nonzero;"/>
        <path d="M235.304,360.372L242.378,360.372L239.402,352.663C239.209,352.186 239.02,351.591 238.834,350.877C238.737,351.239 238.643,351.571 238.55,351.875C238.457,352.179 238.366,352.446 238.278,352.675L235.304,360.372ZM247.72,367.406L245.736,367.406C245.507,367.406 245.322,367.348 245.181,367.234C245.04,367.12 244.935,366.974 244.863,366.797L243.092,362.222L234.59,362.222L232.817,366.797C232.756,366.957 232.65,367.097 232.5,367.22C232.351,367.344 232.165,367.406 231.944,367.406L229.961,367.406L237.538,348.458L240.143,348.458L247.72,367.406Z" style="fill:rgb(194,194,197);fill-rule:nonzero;"/>
        <path d="M258.556,348.543C258.665,348.601 258.792,348.717 258.933,348.894L269.908,363.174C269.882,362.945 269.863,362.723 269.855,362.506C269.846,362.291 269.842,362.082 269.842,361.878L269.842,348.458L272.09,348.458L272.09,367.406L270.794,367.406C270.591,367.406 270.422,367.371 270.285,367.3C270.148,367.23 270.014,367.111 269.882,366.943L258.92,352.675C258.937,352.896 258.95,353.112 258.959,353.324C258.967,353.535 258.972,353.729 258.972,353.905L258.972,367.406L256.725,367.406L256.725,348.458L258.047,348.458C258.276,348.458 258.445,348.486 258.556,348.543Z" style="fill:rgb(194,194,197);fill-rule:nonzero;"/>
        <path d="M290.628,359.869L290.628,367.406L288.076,367.406L288.076,359.869L281.134,348.458L283.382,348.458C283.611,348.458 283.792,348.514 283.924,348.629C284.057,348.744 284.171,348.885 284.268,349.052L288.605,356.417C288.781,356.726 288.929,357.017 289.048,357.291C289.167,357.564 289.275,357.833 289.372,358.097C289.469,357.824 289.575,357.55 289.689,357.277C289.804,357.003 289.949,356.717 290.126,356.417L294.449,349.052C294.529,348.912 294.637,348.777 294.773,348.649C294.91,348.521 295.089,348.458 295.31,348.458L297.584,348.458L290.628,359.869Z" style="fill:rgb(194,194,197);fill-rule:nonzero;"/>
    </g>
</svg>
