<?xml version="1.0" encoding="UTF-8" standalone="no"?>
<!DOCTYPE svg PUBLIC "-//W3C//DTD SVG 1.1//EN" "http://www.w3.org/Graphics/SVG/1.1/DTD/svg11.dtd">
<svg width="100%" height="100%" viewBox="0 0 114 116" version="1.1" xmlns="http://www.w3.org/2000/svg" xmlns:xlink="http://www.w3.org/1999/xlink" xml:space="preserve" xmlns:serif="http://www.serif.com/" style="fill-rule:evenodd;clip-rule:evenodd;stroke-linejoin:round;stroke-miterlimit:2;">
    <g transform="matrix(0.468518,0,0,0.468518,-226.664,-221.456)">
        <path d="M504.7,715.594C505.326,715.594 505.87,715.545 506.331,715.449C506.792,715.352 507.188,715.23 507.519,715.082C507.849,714.934 508.127,714.771 508.355,714.594C508.583,714.418 508.788,714.256 508.97,714.108C509.152,713.96 509.323,713.837 509.482,713.741C509.642,713.644 509.813,713.595 509.995,713.595C510.177,713.595 510.328,713.627 510.447,713.69C510.567,713.752 510.655,713.824 510.712,713.903L512.659,716.243C511.577,717.53 510.294,718.506 508.808,719.172C507.322,719.838 505.634,720.171 503.744,720.171C502.172,720.171 500.78,719.895 499.567,719.343C498.355,718.791 497.333,718.031 496.502,717.063C495.671,716.095 495.042,714.948 494.614,713.622C494.188,712.294 493.974,710.863 493.974,709.326C493.974,707.903 494.134,706.553 494.452,705.278C494.771,704.002 495.221,702.824 495.802,701.743C496.383,700.661 497.08,699.687 497.894,698.822C498.708,697.957 499.61,697.222 500.601,696.619C501.592,696.015 502.656,695.551 503.795,695.226C504.934,694.902 506.123,694.74 507.364,694.74C508.298,694.74 509.149,694.828 509.918,695.004C510.687,695.181 511.381,695.425 512.002,695.739C512.622,696.052 513.177,696.425 513.667,696.858C514.156,697.291 514.583,697.768 514.948,698.292L513,700.546C512.864,700.707 512.705,700.848 512.521,700.974C512.341,701.099 512.102,701.162 511.806,701.162C511.611,701.162 511.436,701.116 511.275,701.025C511.116,700.934 510.954,700.823 510.789,700.692C510.624,700.561 510.438,700.416 510.234,700.256C510.029,700.097 509.784,699.952 509.5,699.821C509.215,699.69 508.876,699.579 508.483,699.488C508.091,699.397 507.626,699.351 507.092,699.351C506.044,699.351 505.067,699.573 504.162,700.017C503.257,700.461 502.472,701.096 501.805,701.921C501.139,702.748 500.618,703.75 500.242,704.927C499.866,706.106 499.679,707.424 499.679,708.881C499.679,709.941 499.807,710.885 500.063,711.716C500.319,712.548 500.669,713.251 501.113,713.826C501.558,714.401 502.087,714.839 502.702,715.141C503.316,715.443 503.982,715.594 504.7,715.594Z" style="fill:rgb(194,194,197);fill-rule:nonzero;"/>
        <path d="M541.216,705.995C541.216,704.97 541.094,704.04 540.849,703.203C540.604,702.366 540.245,701.648 539.772,701.05C539.3,700.453 538.723,699.992 538.039,699.667C537.356,699.342 536.582,699.18 535.717,699.18C534.578,699.18 533.559,699.417 532.659,699.889C531.76,700.362 530.994,701.025 530.362,701.878C529.729,702.733 529.246,703.76 528.91,704.961C528.574,706.164 528.406,707.493 528.406,708.95C528.406,709.975 528.525,710.903 528.765,711.734C529.004,712.565 529.354,713.277 529.815,713.869C530.276,714.461 530.849,714.919 531.532,715.244C532.215,715.568 532.995,715.731 533.872,715.731C535.01,715.731 536.032,715.498 536.938,715.03C537.843,714.563 538.611,713.903 539.243,713.049C539.875,712.195 540.362,711.17 540.704,709.975C541.045,708.779 541.216,707.453 541.216,705.995ZM546.921,705.859C546.921,707.202 546.764,708.489 546.451,709.718C546.138,710.948 545.693,712.092 545.119,713.152C544.544,714.21 543.849,715.172 543.035,716.038C542.221,716.904 541.307,717.641 540.294,718.25C539.28,718.859 538.182,719.332 536.997,719.667C535.813,720.003 534.566,720.171 533.257,720.171C531.617,720.171 530.146,719.884 528.842,719.309C527.538,718.734 526.431,717.948 525.52,716.952C524.608,715.956 523.911,714.783 523.427,713.433C522.943,712.083 522.701,710.629 522.701,709.07C522.701,707.726 522.857,706.436 523.171,705.201C523.484,703.965 523.929,702.818 524.504,701.759C525.078,700.701 525.776,699.739 526.596,698.873C527.416,698.007 528.332,697.27 529.346,696.661C530.359,696.052 531.458,695.58 532.642,695.244C533.826,694.908 535.078,694.74 536.399,694.74C538.027,694.74 539.494,695.027 540.798,695.602C542.102,696.177 543.206,696.965 544.111,697.967C545.017,698.969 545.711,700.148 546.194,701.503C546.679,702.858 546.921,704.31 546.921,705.859Z" style="fill:rgb(194,194,197);fill-rule:nonzero;"/>
        <path d="M570.184,711.17C570.365,710.794 570.557,710.424 570.756,710.06C570.955,709.696 571.163,709.332 571.379,708.967L578.997,695.867C579.225,695.48 579.509,695.241 579.851,695.15C580.192,695.058 580.522,695.013 580.842,695.013L585.214,695.013L582.14,719.898L577.255,719.898L578.997,705.415C579.031,705.107 579.085,704.768 579.159,704.398C579.233,704.028 579.315,703.644 579.406,703.246L571.926,716.089C571.698,716.476 571.402,716.764 571.037,716.952C570.673,717.139 570.274,717.234 569.842,717.234L569.091,717.234C568.657,717.234 568.279,717.137 567.955,716.943C567.63,716.75 567.405,716.465 567.28,716.089L562.907,703.211C562.885,703.598 562.865,703.974 562.848,704.338C562.831,704.703 562.805,705.033 562.771,705.329L561.063,719.898L556.145,719.898L559.219,695.03L564.086,695.03C564.269,695.03 564.431,695.056 564.573,695.107C564.715,695.159 564.838,695.241 564.94,695.355C565.043,695.469 565.128,695.634 565.196,695.85L569.568,708.964C569.808,709.683 570.013,710.418 570.184,711.17Z" style="fill:rgb(194,194,197);fill-rule:nonzero;"/>
        <path d="M602.361,699.164L601.354,707.328L604.035,707.328C604.832,707.328 605.501,707.21 606.042,706.977C606.582,706.744 607.021,706.414 607.356,705.987C607.692,705.559 607.935,705.05 608.083,704.458C608.23,703.866 608.305,703.217 608.305,702.511C608.305,702.021 608.239,701.572 608.108,701.162C607.978,700.751 607.775,700.399 607.502,700.103C607.229,699.806 606.884,699.576 606.469,699.411C606.053,699.246 605.561,699.164 604.991,699.164L602.361,699.164ZM600.824,711.512L599.799,719.898L594.266,719.898L597.306,695.013L605.538,695.013C607.018,695.013 608.285,695.192 609.338,695.551C610.391,695.91 611.257,696.405 611.935,697.037C612.611,697.668 613.109,698.415 613.429,699.274C613.747,700.134 613.907,701.059 613.907,702.049C613.907,703.405 613.699,704.661 613.283,705.816C612.867,706.971 612.233,707.971 611.379,708.813C610.525,709.656 609.443,710.316 608.134,710.794C606.824,711.273 605.275,711.512 603.488,711.512L600.824,711.512Z" style="fill:rgb(194,194,197);fill-rule:nonzero;"/>
        <path d="M627.656,710.418L633.908,710.418L632.695,703.314C632.593,702.721 632.481,702.121 632.362,701.511C632.242,700.903 632.143,700.347 632.063,699.846C631.972,700.12 631.853,700.43 631.704,700.777C631.557,701.125 631.411,701.463 631.269,701.793C631.127,702.124 630.99,702.431 630.859,702.715C630.729,703 630.634,703.211 630.577,703.348L627.656,710.418ZM641.304,719.898L636.999,719.898C636.521,719.898 636.137,719.787 635.847,719.565C635.556,719.343 635.382,719.05 635.325,718.685L634.557,714.21L626.103,714.21L624.258,718.685C624.133,719.004 623.888,719.286 623.523,719.531C623.159,719.776 622.755,719.898 622.311,719.898L617.938,719.898L629.826,695.013L635.53,695.013L641.304,719.898Z" style="fill:rgb(194,194,197);fill-rule:nonzero;"/>
        <path d="M657.862,695.039C658.027,695.055 658.175,695.095 658.307,695.158C658.437,695.221 658.554,695.309 658.656,695.422C658.759,695.537 658.861,695.685 658.964,695.867L667.691,711.239C667.714,710.84 667.748,710.458 667.794,710.094C667.839,709.73 667.879,709.388 667.913,709.07L669.587,695.013L674.506,695.013L671.432,719.898L668.528,719.898C668.096,719.898 667.737,719.835 667.452,719.71C667.168,719.584 666.923,719.34 666.718,718.976L658.024,703.621C658.001,703.94 657.976,704.248 657.947,704.543C657.919,704.839 657.894,705.119 657.871,705.38L656.163,719.898L651.244,719.898L654.318,695.013L657.256,695.013C657.495,695.013 657.697,695.021 657.862,695.039Z" style="fill:rgb(194,194,197);fill-rule:nonzero;"/>
        <path d="M696.453,710.368L695.274,719.898L689.707,719.898L690.886,710.418L684.48,695.013L689.434,695.013C689.912,695.013 690.284,695.124 690.553,695.346C690.819,695.568 691.016,695.861 691.142,696.225L693.532,703.757C693.692,704.259 693.837,704.743 693.968,705.209C694.099,705.676 694.21,706.126 694.302,706.559C694.518,706.126 694.757,705.679 695.019,705.218C695.28,704.756 695.56,704.27 695.855,703.757L700.091,696.225C700.262,695.918 700.513,695.639 700.843,695.388C701.173,695.138 701.571,695.013 702.038,695.013L706.65,695.013L696.453,710.368Z" style="fill:rgb(194,194,197);fill-rule:nonzero;"/>
        <path d="M726.386,668.662L648.858,530.193L600.319,616.887L629.308,668.662L726.386,668.662Z" style="fill:rgb(194,194,197);fill-rule:nonzero;"/>
        <path d="M619.104,668.662L595.218,625.999L571.331,668.662L619.104,668.662Z" style="fill:rgb(194,194,197);fill-rule:nonzero;"/>
        <path d="M592.766,472.674L483.789,668.662L560.053,668.662L630.897,540.78L592.766,472.674Z" style="fill:rgb(194,194,197);fill-rule:nonzero;"/>
    </g>
</svg>
