<?xml version="1.0" encoding="UTF-8" standalone="no"?>
<!DOCTYPE svg PUBLIC "-//W3C//DTD SVG 1.1//EN" "http://www.w3.org/Graphics/SVG/1.1/DTD/svg11.dtd">
<svg width="100%" height="100%" viewBox="0 0 123 98" version="1.1" xmlns="http://www.w3.org/2000/svg" xmlns:xlink="http://www.w3.org/1999/xlink" xml:space="preserve" xmlns:serif="http://www.serif.com/" style="fill-rule:evenodd;clip-rule:evenodd;stroke-linejoin:round;stroke-miterlimit:2;">
    <g transform="matrix(0.468518,0,0,0.468518,-400.213,-232.417)">
        <path d="M868.647,675.749C869.448,675.095 869.848,674.142 869.848,672.889C869.848,671.636 869.44,670.669 868.628,669.99C867.814,669.309 866.661,668.969 865.168,668.969L859.85,668.969L859.85,676.728L865.208,676.728C866.701,676.728 867.848,676.402 868.647,675.749ZM859.85,664.93L864.929,664.93C866.342,664.93 867.414,664.617 868.148,663.99C868.881,663.364 869.248,662.464 869.248,661.291C869.248,660.118 868.888,659.21 868.168,658.571C867.448,657.931 866.342,657.611 864.849,657.611L859.85,657.611L859.85,664.93ZM874.067,669.189C875.093,670.457 875.606,671.943 875.606,673.649C875.606,676.022 874.813,677.895 873.228,679.268C871.641,680.641 869.341,681.328 866.328,681.328L854.21,681.328L854.21,653.091L866.088,653.091C868.941,653.091 871.134,653.718 872.667,654.971C874.2,656.225 874.967,657.985 874.967,660.25C874.967,662.01 874.507,663.451 873.587,664.57C872.667,665.69 871.461,666.423 869.968,666.77C871.674,667.117 873.04,667.923 874.067,669.189Z" style="fill:rgb(194,194,197);fill-rule:nonzero;"/>
        <path d="M889.205,666.45L893.844,666.45C897.069,666.45 898.684,665.024 898.684,662.17C898.684,660.811 898.29,659.75 897.504,658.991C896.717,658.231 895.497,657.851 893.844,657.851L889.205,657.851L889.205,666.45ZM898.283,681.328L891.685,670.33L889.205,670.33L889.205,681.328L883.565,681.328L883.565,653.091L894.324,653.091C897.604,653.091 900.104,653.892 901.823,655.492C903.543,657.091 904.402,659.198 904.402,661.81C904.402,663.944 903.809,665.73 902.623,667.169C901.436,668.61 899.723,669.57 897.483,670.049L904.522,681.328L898.283,681.328Z" style="fill:rgb(194,194,197);fill-rule:nonzero;"/>
        <path d="M927.879,671.369L923.72,659.451L919.561,671.369L927.879,671.369ZM929.398,675.649L918.08,675.649L916.081,681.328L910.121,681.328L920.52,653.412L926.959,653.412L937.317,681.328L931.358,681.328L929.398,675.649Z" style="fill:rgb(194,194,197);fill-rule:nonzero;"/>
        <path d="M968.272,681.328L962.633,681.328L949.995,662.13L949.995,681.328L944.355,681.328L944.355,653.091L949.995,653.091L962.633,672.449L962.633,653.091L968.272,653.091L968.272,681.328Z" style="fill:rgb(194,194,197);fill-rule:nonzero;"/>
        <path d="M994.008,673.889C995.674,672.289 996.508,670.049 996.508,667.169C996.508,664.264 995.674,662.01 994.008,660.411C992.342,658.811 989.989,658.011 986.949,658.011L983.03,658.011L983.03,676.289L986.949,676.289C989.989,676.289 992.342,675.489 994.008,673.889ZM1000.47,674.569C999.294,676.702 997.594,678.362 995.368,679.548C993.142,680.735 990.495,681.328 987.43,681.328L977.391,681.328L977.391,653.091L987.43,653.091C990.495,653.091 993.142,653.671 995.368,654.832C997.594,655.992 999.294,657.631 1000.47,659.75C1001.64,661.871 1002.23,664.344 1002.23,667.169C1002.23,669.969 1001.64,672.436 1000.47,674.569Z" style="fill:rgb(194,194,197);fill-rule:nonzero;"/>
        <path d="M932.929,496.068C932.929,496.068 1005.74,523.555 1004.19,563.332L1004.22,563.332L1004.22,630.594C1004.22,630.594 931.408,603.107 932.953,563.332L932.929,563.332L932.929,496.068Z" style="fill:rgb(194,194,197);fill-rule:nonzero;"/>
        <path d="M1069.05,614.856C1082.55,605.573 1098.38,599.553 1115.3,597.81L1115.3,576.749C1105.51,580.51 1096.31,585.919 1088.08,592.901C1080.53,599.297 1074.16,606.708 1069.05,614.856Z" style="fill:rgb(194,194,197);fill-rule:nonzero;"/>
        <path d="M1060.78,621.193C1066.67,609.287 1074.96,598.591 1085.4,589.745C1094.41,582.106 1104.53,576.267 1115.3,572.328L1115.3,511.659C1115.3,511.659 1011.62,550.801 1013.82,607.443L1013.78,607.443L1013.78,703.227C1013.78,703.227 1018.41,701.479 1025.67,698.197C1025.65,695.124 1025.75,692.035 1026,688.934C1028.25,661.598 1041.39,637.721 1060.78,621.193Z" style="fill:rgb(194,194,197);fill-rule:nonzero;"/>
        <path d="M1050.93,656.78C1051.48,650.059 1052.71,643.5 1054.55,637.17C1042.46,651.446 1034.52,669.473 1032.87,689.501C1032.72,691.328 1032.64,693.148 1032.6,694.965C1038.49,692.128 1045.34,688.604 1052.54,684.454C1050.73,675.464 1050.15,666.171 1050.93,656.78Z" style="fill:rgb(194,194,197);fill-rule:nonzero;"/>
        <path d="M1055.05,657.12C1054.35,665.629 1054.81,674.053 1056.33,682.228C1084.66,665.282 1116.5,639.097 1115.27,607.443L1115.3,607.443L1115.3,604.747C1094.68,607.026 1075.87,616.134 1061.4,629.917C1057.99,638.506 1055.83,647.648 1055.05,657.12Z" style="fill:rgb(194,194,197);fill-rule:nonzero;"/>
    </g>
</svg>
